<svg width="24" height="24" viewBox="0 0 24 24" fill="none" xmlns="http://www.w3.org/2000/svg">
<path d="M12.5808 12.8156L19.0789 6.2035C19.4467 5.82923 19.4467 5.3302 19.0789 5.08069C18.7111 4.83118 18.2207 4.70642 17.9754 5.08069L11.4774 11.6928L4.9793 5.08069C4.61148 4.70642 4.12105 4.70642 3.87584 5.08069C3.63063 5.45496 3.50802 5.95398 3.87584 6.2035L10.3739 12.8156L3.87584 19.4277C3.50802 19.8019 3.50802 20.301 3.87584 20.5505C3.99844 20.6752 4.24365 20.8 4.48886 20.8C4.73407 20.8 4.85668 20.6752 5.10189 20.5505L11.6 13.9384L18.0981 20.5505C18.2207 20.6752 18.4659 20.8 18.7111 20.8C18.9563 20.8 19.0789 20.6752 19.3241 20.5505C19.6919 20.1762 19.6919 19.6772 19.3241 19.4277L12.5808 12.8156Z" fill="#1A1A1A"/>
</svg>
