<svg width="160" height="32" viewBox="0 0 160 32" fill="none" xmlns="http://www.w3.org/2000/svg">
    <path
        d="M58.7261 25.9828C58.7261 26.0932 58.6366 26.1828 58.5261 26.1828H55.856C55.7455 26.1828 55.656 26.0932 55.656 25.9828V17.5899C55.656 16.6738 55.6935 15.6633 55.7685 14.5585C55.7701 14.5352 55.7516 14.5153 55.7282 14.5153C55.7087 14.5153 55.6919 14.5294 55.6884 14.5486C55.5304 15.4126 55.3881 16.0358 55.2614 16.4181L52.073 26.0457C52.0459 26.1275 51.9694 26.1828 51.8832 26.1828H49.63C49.5443 26.1828 49.4682 26.1283 49.4406 26.0473L46.1953 16.5183C46.1065 16.2609 45.9645 15.6058 45.7692 14.553C45.7651 14.5313 45.7462 14.5153 45.7241 14.5153C45.6978 14.5153 45.6769 14.5376 45.6784 14.5639C45.7599 15.9592 45.8007 17.1848 45.8007 18.2409V25.9828C45.8007 26.0932 45.7111 26.1828 45.6007 26.1828H43.2C43.0895 26.1828 43 26.0932 43 25.9828V12.0212C43 11.9108 43.0895 11.8212 43.2 11.8212H47.4079C47.4941 11.8212 47.5706 11.8765 47.5977 11.9583L50.3722 20.334C50.5936 21.0053 50.7557 21.6798 50.8586 22.3576C50.8612 22.3745 50.8758 22.3871 50.8929 22.3871C50.9092 22.3871 50.9233 22.3757 50.9268 22.3598C51.0982 21.5767 51.2791 20.8948 51.4694 20.314L54.2438 11.9582C54.271 11.8764 54.3475 11.8212 54.4336 11.8212H58.5261C58.6366 11.8212 58.7261 11.9108 58.7261 12.0212V25.9828Z"
        fill="black" />
    <path
        d="M69.7652 25.9828C69.7652 26.0932 69.6757 26.1828 69.5652 26.1828H67.0875C66.9771 26.1828 66.8875 26.0932 66.8875 25.9828V24.735C66.8875 24.7215 66.8766 24.7106 66.8632 24.7106C66.8544 24.7106 66.8463 24.7153 66.8419 24.7229C66.1812 25.8631 65.2051 26.4331 63.9136 26.4331C62.9576 26.4331 62.2037 26.1527 61.6519 25.5919C61.1065 25.0244 60.8339 24.2699 60.8339 23.3285C60.8339 21.3388 61.9663 20.1905 64.2312 19.8833L66.7342 19.5367C66.8331 19.523 66.9077 19.438 66.9018 19.3383C66.8429 18.3329 66.2607 17.8302 65.1552 17.8302C64.0982 17.8302 63.0881 18.1251 62.1248 18.7148C61.9874 18.7988 61.8059 18.7027 61.8059 18.5417V16.658C61.8059 16.5843 61.8462 16.5163 61.9122 16.4835C62.3243 16.2789 62.8663 16.0969 63.5383 15.9374C64.2761 15.7638 64.9466 15.677 65.5498 15.677C68.3601 15.677 69.7652 17.1359 69.7652 20.0536V25.9828ZM66.9068 22.0165V21.5541C66.9068 21.4331 66.8001 21.3398 66.6802 21.3559L65.1167 21.5658C64.1286 21.6994 63.6345 22.1634 63.6345 22.9579C63.6345 23.3185 63.7532 23.6156 63.9906 23.8493C64.2344 24.0763 64.5617 24.1898 64.9723 24.1898C65.5434 24.1898 66.0085 23.9861 66.3678 23.5789C66.7271 23.1649 66.9068 22.6441 66.9068 22.0165Z"
        fill="black" />
    <path
        d="M81.8341 25.011C81.8341 26.9139 81.3048 28.3861 80.2461 29.4276C79.1874 30.4759 77.6539 31 75.6457 31C74.3794 31 73.3639 30.821 72.5992 30.4629C72.5309 30.4309 72.4889 30.3617 72.4889 30.2863V28.1002C72.4889 27.9443 72.6598 27.8476 72.7968 27.922C73.7097 28.4184 74.6305 28.6665 75.5591 28.6665C76.5856 28.6665 77.3813 28.3827 77.9459 27.8152C78.5105 27.2544 78.7928 26.4899 78.7928 25.5218V24.7352C78.7928 24.7216 78.7818 24.7106 78.7682 24.7106C78.7596 24.7106 78.7516 24.7152 78.7471 24.7225C78.0542 25.8629 77.0333 26.4331 75.6842 26.4331C74.4266 26.4331 73.4289 25.9725 72.691 25.0511C71.9531 24.1297 71.5842 22.8945 71.5842 21.3455C71.5842 19.6096 71.9948 18.2308 72.8161 17.2093C73.6374 16.1878 74.7185 15.677 76.0595 15.677C77.2545 15.677 78.1503 16.1538 78.747 17.1074C78.7515 17.1147 78.7595 17.1192 78.7681 17.1192C78.7817 17.1192 78.7928 17.1081 78.7928 17.0944V16.1274C78.7928 16.0169 78.8824 15.9274 78.9928 15.9274H81.6341C81.7446 15.9274 81.8341 16.0169 81.8341 16.1274V25.011ZM78.8313 21.2554V20.4442C78.8313 19.7965 78.6452 19.2457 78.2731 18.7917C77.9074 18.331 77.4294 18.1007 76.8391 18.1007C76.1654 18.1007 75.636 18.3744 75.2511 18.9219C74.8661 19.4694 74.6736 20.2405 74.6736 21.2354C74.6736 22.09 74.8565 22.7677 75.2222 23.2684C75.5879 23.7625 76.0884 24.0095 76.7236 24.0095C77.3524 24.0095 77.8593 23.7591 78.2442 23.2584C78.6356 22.751 78.8313 22.0833 78.8313 21.2554Z"
        fill="black" />
    <path
        d="M85.9148 14.305C85.4015 14.305 84.9813 14.1481 84.654 13.8343C84.3268 13.5138 84.1632 13.1232 84.1632 12.6625C84.1632 12.1884 84.3268 11.8012 84.654 11.5008C84.9813 11.2003 85.4015 11.0501 85.9148 11.0501C86.4345 11.0501 86.8548 11.2003 87.1756 11.5008C87.5028 11.8012 87.6664 12.1884 87.6664 12.6625C87.6664 13.1432 87.5028 13.5371 87.1756 13.8443C86.8548 14.1514 86.4345 14.305 85.9148 14.305ZM87.4162 25.9828C87.4162 26.0932 87.3267 26.1828 87.2162 26.1828H84.5749C84.4645 26.1828 84.3749 26.0932 84.3749 25.9828V16.1274C84.3749 16.0169 84.4645 15.9274 84.5749 15.9274H87.2162C87.3267 15.9274 87.4162 16.0169 87.4162 16.1274V25.9828Z"
        fill="black" />
    <path
        d="M97.4447 25.6993C97.4447 25.7694 97.4084 25.8347 97.347 25.8686C96.6654 26.245 95.7067 26.4331 94.4708 26.4331C92.9566 26.4331 91.7311 25.9558 90.7943 25.001C89.8576 24.0462 89.3892 22.8144 89.3892 21.3055C89.3892 19.5628 89.8897 18.1908 90.8906 17.1893C91.8979 16.1811 93.2421 15.677 94.9232 15.677C96.0151 15.677 96.8234 15.8187 97.3481 16.102C97.4092 16.1349 97.4447 16.2 97.4447 16.2694V18.4328C97.4447 18.5993 97.2509 18.6956 97.1093 18.6081C96.5627 18.2698 95.9655 18.1007 95.3178 18.1007C94.4452 18.1007 93.7522 18.3677 93.2389 18.9019C92.732 19.4293 92.4786 20.1604 92.4786 21.0951C92.4786 22.0032 92.7224 22.7176 93.21 23.2384C93.6977 23.7525 94.3682 24.0095 95.2215 24.0095C95.8676 24.0095 96.5019 23.8296 97.1246 23.4699C97.2637 23.3895 97.4447 23.4861 97.4447 23.6467V25.6993Z"
        fill="black" />
    <path
        d="M103.054 21.2354C102.943 21.2354 102.854 21.3249 102.854 21.4354V25.9828C102.854 26.0932 102.764 26.1828 102.654 26.1828H99.945C99.8345 26.1828 99.745 26.0932 99.745 25.9828V12.0212C99.745 11.9108 99.8345 11.8212 99.945 11.8212H104.615C108.092 11.8212 109.831 13.3469 109.831 16.3981C109.831 17.8403 109.331 19.0087 108.33 19.9034C107.335 20.7914 106.004 21.2354 104.336 21.2354H103.054ZM103.054 14.305C102.943 14.305 102.854 14.3945 102.854 14.505V18.5817C102.854 18.6921 102.943 18.7817 103.054 18.7817H104.076C105.731 18.7817 106.559 18.0272 106.559 16.5183C106.559 15.0427 105.731 14.305 104.076 14.305H103.054Z"
        fill="black" />
    <path
        d="M115.654 26.4331C114.011 26.4331 112.719 25.9558 111.775 25.001C110.839 24.0396 110.37 22.7376 110.37 21.0951C110.37 19.3993 110.858 18.0739 111.833 17.1192C112.808 16.1577 114.127 15.677 115.789 15.677C117.425 15.677 118.708 16.1577 119.638 17.1192C120.569 18.0739 121.034 19.3392 121.034 20.9149C121.034 22.6174 120.553 23.9628 119.59 24.9509C118.634 25.9391 117.322 26.4331 115.654 26.4331ZM115.731 18.1007C115.012 18.1007 114.454 18.3577 114.056 18.8718C113.659 19.3859 113.46 20.1137 113.46 21.0551C113.46 23.0247 114.223 24.0095 115.75 24.0095C117.207 24.0095 117.935 22.998 117.935 20.975C117.935 19.0588 117.2 18.1007 115.731 18.1007Z"
        fill="black" />
    <path
        d="M132.65 25.9828C132.65 26.0932 132.561 26.1828 132.45 26.1828H129.809C129.699 26.1828 129.609 26.0932 129.609 25.9828V24.7954C129.609 24.7817 129.598 24.7707 129.584 24.7707C129.576 24.7707 129.568 24.7751 129.563 24.7824C128.871 25.8829 127.856 26.4331 126.52 26.4331C125.288 26.4331 124.297 25.9825 123.546 25.0811C122.795 24.1731 122.42 22.9079 122.42 21.2854C122.42 19.5896 122.834 18.2308 123.661 17.2093C124.489 16.1878 125.573 15.677 126.914 15.677C128.179 15.677 129.062 16.1468 129.564 17.0863C129.568 17.0941 129.576 17.0991 129.585 17.0991C129.598 17.0991 129.609 17.0884 129.609 17.0751V11.2C129.609 11.0895 129.699 11 129.809 11H132.45C132.561 11 132.65 11.0895 132.65 11.2V25.9828ZM129.667 21.1953V20.4241C129.667 19.7565 129.481 19.2023 129.109 18.7616C128.737 18.321 128.252 18.1007 127.655 18.1007C126.982 18.1007 126.456 18.3777 126.077 18.9319C125.699 19.4794 125.509 20.2339 125.509 21.1953C125.509 22.0966 125.692 22.791 126.058 23.2784C126.424 23.7658 126.93 24.0095 127.578 24.0095C128.194 24.0095 128.695 23.7525 129.08 23.2384C129.471 22.7243 129.667 22.0432 129.667 21.1953Z"
        fill="black" />
    <path
        d="M134.696 25.9599C134.617 25.932 134.566 25.8572 134.566 25.7739V23.71C134.566 23.5528 134.739 23.4562 134.876 23.5333C135.272 23.7557 135.666 23.9278 136.057 24.0496C136.558 24.2031 137.03 24.2799 137.472 24.2799C138.011 24.2799 138.435 24.2031 138.743 24.0496C139.057 23.896 139.214 23.6623 139.214 23.3485C139.214 23.1482 139.144 22.9813 139.003 22.8478C138.861 22.7142 138.679 22.5974 138.454 22.4972C138.236 22.3971 137.995 22.307 137.732 22.2268C137.469 22.1467 137.216 22.0566 136.972 21.9564C136.58 21.8029 136.234 21.6393 135.932 21.4657C135.637 21.2854 135.387 21.0785 135.182 20.8448C134.983 20.6111 134.829 20.3407 134.72 20.0336C134.617 19.7264 134.566 19.3625 134.566 18.9419C134.566 18.3677 134.684 17.8736 134.922 17.4597C135.166 17.0457 135.486 16.7086 135.884 16.4482C136.288 16.1811 136.747 15.9875 137.261 15.8673C137.78 15.7404 138.319 15.677 138.877 15.677C139.314 15.677 139.756 15.7137 140.206 15.7872C140.606 15.8467 141.002 15.9328 141.392 16.0455C141.476 16.0698 141.534 16.1477 141.534 16.2356V18.1759C141.534 18.3318 141.362 18.4292 141.223 18.3589C140.928 18.2102 140.618 18.0941 140.292 18.0105C139.856 17.8903 139.426 17.8302 139.003 17.8302C138.804 17.8302 138.614 17.8503 138.435 17.8903C138.261 17.9237 138.107 17.9771 137.973 18.0506C137.838 18.1173 137.732 18.2075 137.655 18.321C137.578 18.4278 137.54 18.5513 137.54 18.6915C137.54 18.8785 137.597 19.0387 137.713 19.1723C137.828 19.3058 137.979 19.4226 138.165 19.5228C138.351 19.6163 138.557 19.7031 138.781 19.7832C139.012 19.8566 139.24 19.9334 139.464 20.0135C139.869 20.1604 140.234 20.3206 140.562 20.4942C140.889 20.6678 141.168 20.8715 141.399 21.1052C141.636 21.3388 141.816 21.6126 141.938 21.9264C142.066 22.2402 142.13 22.6141 142.13 23.0481C142.13 23.6557 142.002 24.1764 141.745 24.6104C141.495 25.0377 141.158 25.3882 140.735 25.662C140.318 25.9291 139.833 26.1227 139.282 26.2429C138.736 26.3697 138.168 26.4331 137.578 26.4331C136.544 26.4331 135.584 26.2754 134.696 25.9599Z"
        fill="black" />
    <g clip-path="url(#clip0_1720_3594)">
        <g filter="url(#filter0_d_1720_3594)">
            <path d="M17 12.5H22V29C22 30.3807 20.8807 31.5 19.5 31.5C18.1193 31.5 17 30.3807 17 29V12.5Z"
                fill="url(#paint0_linear_1720_3594)" />
            <path d="M17 12.5H22V29C22 30.3807 20.8807 31.5 19.5 31.5C18.1193 31.5 17 30.3807 17 29V12.5Z"
                fill="url(#paint1_linear_1720_3594)" fill-opacity="0.2" style="mix-blend-mode:hard-light" />
            <path
                d="M17.125 12.625H21.875V29C21.875 30.3117 20.8117 31.375 19.5 31.375C18.1883 31.375 17.125 30.3117 17.125 29V12.625Z"
                stroke="url(#paint2_linear_1720_3594)" stroke-opacity="0.3" stroke-width="0.25" />
            <path
                d="M17 28.5C19.25 28.5 19.25 28.5 22 28.5V29C22 30.3807 20.8807 31.5 19.5 31.5C18.1193 31.5 17 30.3807 17 29V28.5Z"
                fill="url(#paint3_radial_1720_3594)" />
            <path
                d="M17.125 28.625H21.875V29C21.875 30.3117 20.8117 31.375 19.5 31.375C18.1883 31.375 17.125 30.3117 17.125 29V28.625Z"
                stroke="url(#paint4_linear_1720_3594)" stroke-opacity="0.2" stroke-width="0.25" />
        </g>
        <g filter="url(#filter1_d_1720_3594)">
            <ellipse cx="7.4999" cy="7.5" rx="7.4999" ry="7.5" transform="matrix(-1 0 0 1 32.001 5.5)"
                fill="url(#paint5_radial_1720_3594)" />
            <path
                d="M28.625 13C28.625 14.0915 28.8188 15.0737 29.1271 15.7783C29.2813 16.1308 29.4617 16.4082 29.6557 16.5958C29.8491 16.7828 30.0497 16.875 30.25 16.875C30.4503 16.875 30.6509 16.7828 30.8443 16.5958C31.0383 16.4082 31.2187 16.1308 31.3729 15.7783C31.6812 15.0737 31.875 14.0915 31.875 13C31.875 11.9085 31.6812 10.9263 31.3729 10.2217C31.2187 9.86917 31.0383 9.59175 30.8443 9.40421C30.6509 9.21724 30.4503 9.125 30.25 9.125C30.0497 9.125 29.8491 9.21724 29.6557 9.40421C29.4617 9.59175 29.2813 9.86917 29.1271 10.2217C28.8188 10.9263 28.625 11.9085 28.625 13Z"
                fill="url(#paint6_linear_1720_3594)" stroke="url(#paint7_linear_1720_3594)" stroke-width="0.25" />
            <ellipse cx="0.999986" cy="1" rx="0.999986" ry="1" transform="matrix(-1 0 0 1 25.377 10.2607)"
                fill="url(#paint8_linear_1720_3594)" />
            <ellipse cx="0.999986" cy="1" rx="0.999986" ry="1" transform="matrix(-1 0 0 1 25.377 10.2607)" fill="black"
                fill-opacity="0.2" />
            <ellipse cx="0.999986" cy="1" rx="0.999986" ry="1" transform="matrix(-1 0 0 1 25.377 10.2607)"
                stroke="url(#paint9_linear_1720_3594)" stroke-width="0.25" />
        </g>
        <g filter="url(#filter2_d_1720_3594)">
            <path
                d="M27.5 22L27.6723 22.4494C28.1801 23.7736 29.2264 24.8199 30.5506 25.3277L31 25.5L30.5506 25.6724C29.2264 26.1801 28.1801 27.2264 27.6723 28.5506L27.5 29L27.3277 28.5506C26.8199 27.2264 25.7736 26.1801 24.4494 25.6724L24 25.5L24.4494 25.3277C25.7736 24.8199 26.8199 23.7736 27.3277 22.4494L27.5 22Z"
                fill="url(#paint10_linear_1720_3594)" />
            <path
                d="M24.6911 25.5C25.959 24.9678 26.9678 23.959 27.5 22.6911C28.0322 23.959 29.041 24.9678 30.3089 25.5C29.041 26.0322 28.0322 27.041 27.5 28.3089C26.9678 27.041 25.959 26.0322 24.6911 25.5Z"
                stroke="url(#paint11_linear_1720_3594)" stroke-width="0.5" />
        </g>
        <g filter="url(#filter3_d_1720_3594)">
            <path
                d="M16 1L16.0338 1.08803C16.5416 2.41221 17.5878 3.45845 18.912 3.96624L19 4L18.912 4.03376C17.5878 4.54156 16.5416 5.5878 16.0338 6.91197L16 7L15.9662 6.91197C15.4584 5.5878 14.4122 4.54156 13.088 4.03376L13 4L13.088 3.96624C14.4122 3.45845 15.4584 2.41221 15.9662 1.08803L16 1Z"
                fill="url(#paint12_linear_1720_3594)" />
            <path
                d="M16 1.63259C16.5095 2.65874 17.3413 3.49054 18.3674 4C17.3413 4.50946 16.5095 5.34126 16 6.36741C15.4905 5.34126 14.6587 4.50946 13.6326 4C14.6587 3.49054 15.4905 2.65874 16 1.63259Z"
                stroke="url(#paint13_linear_1720_3594)" stroke-width="0.5" />
        </g>
        <g filter="url(#filter4_d_1720_3594)">
            <path
                d="M4.5 22C4.94107 23.1502 5.84983 24.0589 7 24.5C5.84983 24.9411 4.94107 25.8498 4.5 27C4.05893 25.8498 3.15017 24.9411 2 24.5C3.15017 24.0589 4.05893 23.1502 4.5 22Z"
                fill="url(#paint14_linear_1720_3594)" />
            <path
                d="M2.60189 24.5C3.40931 24.0706 4.07056 23.4093 4.5 22.6019C4.92944 23.4093 5.59069 24.0706 6.39811 24.5C5.59069 24.9294 4.92944 25.5907 4.5 26.3981C4.07056 25.5907 3.40931 24.9294 2.60189 24.5Z"
                stroke="url(#paint15_linear_1720_3594)" stroke-width="0.5" />
        </g>
        <path d="M17 28.25H22" stroke="url(#paint16_linear_1720_3594)" stroke-opacity="0.61" stroke-width="0.5" />
        <g filter="url(#filter5_d_1720_3594)">
            <path d="M15 12.5H10V29C10 30.3807 11.1193 31.5 12.5 31.5C13.8807 31.5 15 30.3807 15 29V12.5Z"
                fill="url(#paint17_linear_1720_3594)" />
            <path d="M15 12.5H10V29C10 30.3807 11.1193 31.5 12.5 31.5C13.8807 31.5 15 30.3807 15 29V12.5Z"
                fill="url(#paint18_linear_1720_3594)" fill-opacity="0.2" style="mix-blend-mode:hard-light" />
            <path
                d="M14.875 12.625H10.125V29C10.125 30.3117 11.1883 31.375 12.5 31.375C13.8117 31.375 14.875 30.3117 14.875 29V12.625Z"
                stroke="url(#paint19_linear_1720_3594)" stroke-opacity="0.3" stroke-width="0.25" />
            <path
                d="M15 28.5C12.75 28.5 12.75 28.5 10 28.5V29C10 30.3807 11.1193 31.5 12.5 31.5C13.8807 31.5 15 30.3807 15 29V28.5Z"
                fill="url(#paint20_radial_1720_3594)" />
            <path
                d="M14.875 28.625H10.125V29C10.125 30.3117 11.1883 31.375 12.5 31.375C13.8117 31.375 14.875 30.3117 14.875 29V28.625Z"
                stroke="url(#paint21_linear_1720_3594)" stroke-opacity="0.2" stroke-width="0.25" />
        </g>
        <g filter="url(#filter6_d_1720_3594)">
            <ellipse cx="7.4999" cy="13" rx="7.4999" ry="7.5" fill="url(#paint22_radial_1720_3594)" />
            <path
                d="M3.37598 13C3.37598 14.0915 3.18217 15.0737 2.87389 15.7783C2.71967 16.1308 2.53926 16.4082 2.34527 16.5958C2.15188 16.7828 1.95124 16.875 1.75098 16.875C1.55071 16.875 1.35007 16.7828 1.15668 16.5958C0.96269 16.4082 0.78228 16.1308 0.628059 15.7783C0.319781 15.0737 0.125977 14.0915 0.125977 13C0.125977 11.9085 0.319781 10.9263 0.628059 10.2217C0.78228 9.86917 0.96269 9.59175 1.15668 9.40421C1.35007 9.21724 1.55071 9.125 1.75098 9.125C1.95124 9.125 2.15188 9.21724 2.34527 9.40421C2.53926 9.59175 2.71967 9.86917 2.87389 10.2217C3.18217 10.9263 3.37598 11.9085 3.37598 13Z"
                fill="url(#paint23_linear_1720_3594)" stroke="url(#paint24_linear_1720_3594)" stroke-width="0.25" />
            <ellipse cx="7.62401" cy="11.2607" rx="0.999986" ry="1" fill="url(#paint25_linear_1720_3594)" />
            <ellipse cx="7.62401" cy="11.2607" rx="0.999986" ry="1" fill="black" fill-opacity="0.2" />
            <ellipse cx="7.62401" cy="11.2607" rx="0.999986" ry="1" stroke="url(#paint26_linear_1720_3594)"
                stroke-width="0.25" />
        </g>
        <path d="M10 28.25H15" stroke="url(#paint27_linear_1720_3594)" stroke-opacity="0.61" stroke-width="0.5" />
    </g>
    <defs>
        <filter id="filter0_d_1720_3594" x="16.5" y="12.5" width="6" height="20" filterUnits="userSpaceOnUse"
            color-interpolation-filters="sRGB">
            <feFlood flood-opacity="0" result="BackgroundImageFix" />
            <feColorMatrix in="SourceAlpha" type="matrix" values="0 0 0 0 0 0 0 0 0 0 0 0 0 0 0 0 0 0 127 0"
                result="hardAlpha" />
            <feOffset dy="0.5" />
            <feGaussianBlur stdDeviation="0.25" />
            <feComposite in2="hardAlpha" operator="out" />
            <feColorMatrix type="matrix" values="0 0 0 0 0.0541667 0 0 0 0 0.261187 0 0 0 0 0.541667 0 0 0 0.15 0" />
            <feBlend mode="normal" in2="BackgroundImageFix" result="effect1_dropShadow_1720_3594" />
            <feBlend mode="normal" in="SourceGraphic" in2="effect1_dropShadow_1720_3594" result="shape" />
        </filter>
        <filter id="filter1_d_1720_3594" x="16.501" y="5.5" width="16" height="16" filterUnits="userSpaceOnUse"
            color-interpolation-filters="sRGB">
            <feFlood flood-opacity="0" result="BackgroundImageFix" />
            <feColorMatrix in="SourceAlpha" type="matrix" values="0 0 0 0 0 0 0 0 0 0 0 0 0 0 0 0 0 0 127 0"
                result="hardAlpha" />
            <feOffset dy="0.5" />
            <feGaussianBlur stdDeviation="0.25" />
            <feComposite in2="hardAlpha" operator="out" />
            <feColorMatrix type="matrix" values="0 0 0 0 0.0541667 0 0 0 0 0.261187 0 0 0 0 0.541667 0 0 0 0.1 0" />
            <feBlend mode="multiply" in2="BackgroundImageFix" result="effect1_dropShadow_1720_3594" />
            <feBlend mode="normal" in="SourceGraphic" in2="effect1_dropShadow_1720_3594" result="shape" />
        </filter>
        <filter id="filter2_d_1720_3594" x="21.5" y="20" width="12" height="12" filterUnits="userSpaceOnUse"
            color-interpolation-filters="sRGB">
            <feFlood flood-opacity="0" result="BackgroundImageFix" />
            <feColorMatrix in="SourceAlpha" type="matrix" values="0 0 0 0 0 0 0 0 0 0 0 0 0 0 0 0 0 0 127 0"
                result="hardAlpha" />
            <feOffset dy="0.5" />
            <feGaussianBlur stdDeviation="1.25" />
            <feComposite in2="hardAlpha" operator="out" />
            <feColorMatrix type="matrix" values="0 0 0 0 0.996078 0 0 0 0 0.756863 0 0 0 0 0.0313726 0 0 0 0.2 0" />
            <feBlend mode="normal" in2="BackgroundImageFix" result="effect1_dropShadow_1720_3594" />
            <feBlend mode="normal" in="SourceGraphic" in2="effect1_dropShadow_1720_3594" result="shape" />
        </filter>
        <filter id="filter3_d_1720_3594" x="10.5" y="-1" width="11" height="11" filterUnits="userSpaceOnUse"
            color-interpolation-filters="sRGB">
            <feFlood flood-opacity="0" result="BackgroundImageFix" />
            <feColorMatrix in="SourceAlpha" type="matrix" values="0 0 0 0 0 0 0 0 0 0 0 0 0 0 0 0 0 0 127 0"
                result="hardAlpha" />
            <feOffset dy="0.5" />
            <feGaussianBlur stdDeviation="1.25" />
            <feComposite in2="hardAlpha" operator="out" />
            <feColorMatrix type="matrix" values="0 0 0 0 0.996078 0 0 0 0 0.756863 0 0 0 0 0.0313726 0 0 0 0.2 0" />
            <feBlend mode="normal" in2="BackgroundImageFix" result="effect1_dropShadow_1720_3594" />
            <feBlend mode="normal" in="SourceGraphic" in2="effect1_dropShadow_1720_3594" result="shape" />
        </filter>
        <filter id="filter4_d_1720_3594" x="-0.5" y="20" width="10" height="10" filterUnits="userSpaceOnUse"
            color-interpolation-filters="sRGB">
            <feFlood flood-opacity="0" result="BackgroundImageFix" />
            <feColorMatrix in="SourceAlpha" type="matrix" values="0 0 0 0 0 0 0 0 0 0 0 0 0 0 0 0 0 0 127 0"
                result="hardAlpha" />
            <feOffset dy="0.5" />
            <feGaussianBlur stdDeviation="1.25" />
            <feComposite in2="hardAlpha" operator="out" />
            <feColorMatrix type="matrix" values="0 0 0 0 0.996078 0 0 0 0 0.756863 0 0 0 0 0.0313726 0 0 0 0.2 0" />
            <feBlend mode="normal" in2="BackgroundImageFix" result="effect1_dropShadow_1720_3594" />
            <feBlend mode="normal" in="SourceGraphic" in2="effect1_dropShadow_1720_3594" result="shape" />
        </filter>
        <filter id="filter5_d_1720_3594" x="9.5" y="12.5" width="6" height="20" filterUnits="userSpaceOnUse"
            color-interpolation-filters="sRGB">
            <feFlood flood-opacity="0" result="BackgroundImageFix" />
            <feColorMatrix in="SourceAlpha" type="matrix" values="0 0 0 0 0 0 0 0 0 0 0 0 0 0 0 0 0 0 127 0"
                result="hardAlpha" />
            <feOffset dy="0.5" />
            <feGaussianBlur stdDeviation="0.25" />
            <feComposite in2="hardAlpha" operator="out" />
            <feColorMatrix type="matrix" values="0 0 0 0 0.0541667 0 0 0 0 0.261187 0 0 0 0 0.541667 0 0 0 0.15 0" />
            <feBlend mode="normal" in2="BackgroundImageFix" result="effect1_dropShadow_1720_3594" />
            <feBlend mode="normal" in="SourceGraphic" in2="effect1_dropShadow_1720_3594" result="shape" />
        </filter>
        <filter id="filter6_d_1720_3594" x="-0.5" y="5.5" width="16" height="16" filterUnits="userSpaceOnUse"
            color-interpolation-filters="sRGB">
            <feFlood flood-opacity="0" result="BackgroundImageFix" />
            <feColorMatrix in="SourceAlpha" type="matrix" values="0 0 0 0 0 0 0 0 0 0 0 0 0 0 0 0 0 0 127 0"
                result="hardAlpha" />
            <feOffset dy="0.5" />
            <feGaussianBlur stdDeviation="0.25" />
            <feComposite in2="hardAlpha" operator="out" />
            <feColorMatrix type="matrix" values="0 0 0 0 0.0541667 0 0 0 0 0.261187 0 0 0 0 0.541667 0 0 0 0.1 0" />
            <feBlend mode="multiply" in2="BackgroundImageFix" result="effect1_dropShadow_1720_3594" />
            <feBlend mode="normal" in="SourceGraphic" in2="effect1_dropShadow_1720_3594" result="shape" />
        </filter>
        <linearGradient id="paint0_linear_1720_3594" x1="20.5" y1="20" x2="9.5" y2="32.25"
            gradientUnits="userSpaceOnUse">
            <stop stop-color="#0486F3" />
            <stop offset="0.535308" stop-color="#2CDAEB" />
            <stop offset="1" stop-color="#0486F3" />
            <stop offset="1" stop-color="#0486F3" />
        </linearGradient>
        <linearGradient id="paint1_linear_1720_3594" x1="21" y1="22.25" x2="17.25" y2="22.5"
            gradientUnits="userSpaceOnUse">
            <stop stop-color="#0C1B2E" />
            <stop offset="1" stop-color="white" />
        </linearGradient>
        <linearGradient id="paint2_linear_1720_3594" x1="17" y1="25.75" x2="22" y2="25.5"
            gradientUnits="userSpaceOnUse">
            <stop stop-opacity="0" />
            <stop offset="0.755208" stop-color="#0461DF" />
        </linearGradient>
        <radialGradient id="paint3_radial_1720_3594" cx="0" cy="0" r="1" gradientUnits="userSpaceOnUse"
            gradientTransform="translate(18.5 32.25) rotate(-71.5651) scale(3.16228 5.27046)">
            <stop stop-color="#0461DF" stop-opacity="0" />
            <stop offset="1" stop-color="#0461DF" />
        </radialGradient>
        <linearGradient id="paint4_linear_1720_3594" x1="19.5" y1="28.5" x2="19.5" y2="31.5"
            gradientUnits="userSpaceOnUse">
            <stop stop-color="#0461DF" />
            <stop offset="1" stop-opacity="0" />
        </linearGradient>
        <radialGradient id="paint5_radial_1720_3594" cx="0" cy="0" r="1" gradientUnits="userSpaceOnUse"
            gradientTransform="translate(7.49989 3.75) rotate(90) scale(11 10.9998)">
            <stop stop-color="#2DE9FB" />
            <stop offset="1" stop-color="#0486F3" />
        </radialGradient>
        <linearGradient id="paint6_linear_1720_3594" x1="30.25" y1="9" x2="30.25" y2="17"
            gradientUnits="userSpaceOnUse">
            <stop stop-color="#0E438A" />
            <stop offset="1" stop-color="#0461DF" />
        </linearGradient>
        <linearGradient id="paint7_linear_1720_3594" x1="30.25" y1="9" x2="30.25" y2="17"
            gradientUnits="userSpaceOnUse">
            <stop stop-color="#0486F3" />
            <stop offset="1" stop-color="#2DE9FB" />
        </linearGradient>
        <linearGradient id="paint8_linear_1720_3594" x1="0.999986" y1="0" x2="0.999986" y2="2"
            gradientUnits="userSpaceOnUse">
            <stop stop-color="#0461DF" />
            <stop offset="1" stop-color="#1462CC" />
        </linearGradient>
        <linearGradient id="paint9_linear_1720_3594" x1="0.999986" y1="0" x2="0.999986" y2="2"
            gradientUnits="userSpaceOnUse">
            <stop stop-color="#0486F3" />
            <stop offset="1" stop-color="#2DE9FB" />
        </linearGradient>
        <linearGradient id="paint10_linear_1720_3594" x1="27.5" y1="22" x2="27.5" y2="29"
            gradientUnits="userSpaceOnUse">
            <stop stop-color="#FFB800" />
            <stop offset="1" stop-color="#FBDC1F" />
        </linearGradient>
        <linearGradient id="paint11_linear_1720_3594" x1="27.5" y1="22" x2="27.5" y2="29"
            gradientUnits="userSpaceOnUse">
            <stop offset="0.223958" stop-color="#FEB901" />
            <stop offset="0.703125" stop-color="#FBDB1E" />
        </linearGradient>
        <linearGradient id="paint12_linear_1720_3594" x1="16" y1="1" x2="16" y2="7" gradientUnits="userSpaceOnUse">
            <stop stop-color="#FFB800" />
            <stop offset="1" stop-color="#FBDC1F" />
        </linearGradient>
        <linearGradient id="paint13_linear_1720_3594" x1="16" y1="1" x2="16" y2="7" gradientUnits="userSpaceOnUse">
            <stop offset="0.223958" stop-color="#FEB901" />
            <stop offset="0.703125" stop-color="#FBDB1E" />
        </linearGradient>
        <linearGradient id="paint14_linear_1720_3594" x1="4.5" y1="22" x2="4.5" y2="27" gradientUnits="userSpaceOnUse">
            <stop stop-color="#FFB800" />
            <stop offset="1" stop-color="#FBDC1F" />
        </linearGradient>
        <linearGradient id="paint15_linear_1720_3594" x1="4.5" y1="22" x2="4.5" y2="27" gradientUnits="userSpaceOnUse">
            <stop offset="0.223958" stop-color="#FEB901" />
            <stop offset="0.703125" stop-color="#FBDB1E" />
        </linearGradient>
        <linearGradient id="paint16_linear_1720_3594" x1="22" y1="28.75" x2="17.25" y2="28.75"
            gradientUnits="userSpaceOnUse">
            <stop stop-color="#2DE9FB" />
            <stop offset="1" stop-color="white" />
        </linearGradient>
        <linearGradient id="paint17_linear_1720_3594" x1="11.5" y1="20" x2="22.5" y2="32.25"
            gradientUnits="userSpaceOnUse">
            <stop stop-color="#0486F3" />
            <stop offset="0.535308" stop-color="#2CDAEB" />
            <stop offset="1" stop-color="#0486F3" />
            <stop offset="1" stop-color="#0486F3" />
        </linearGradient>
        <linearGradient id="paint18_linear_1720_3594" x1="11" y1="22.25" x2="14.75" y2="22.5"
            gradientUnits="userSpaceOnUse">
            <stop stop-color="#0C1B2E" />
            <stop offset="1" stop-color="white" />
        </linearGradient>
        <linearGradient id="paint19_linear_1720_3594" x1="15" y1="25.75" x2="10" y2="25.5"
            gradientUnits="userSpaceOnUse">
            <stop stop-opacity="0" />
            <stop offset="0.755208" stop-color="#0461DF" />
        </linearGradient>
        <radialGradient id="paint20_radial_1720_3594" cx="0" cy="0" r="1" gradientUnits="userSpaceOnUse"
            gradientTransform="translate(13.5 32.25) rotate(-108.435) scale(3.16228 5.27046)">
            <stop stop-color="#0461DF" stop-opacity="0" />
            <stop offset="1" stop-color="#0461DF" />
        </radialGradient>
        <linearGradient id="paint21_linear_1720_3594" x1="12.5" y1="28.5" x2="12.5" y2="31.5"
            gradientUnits="userSpaceOnUse">
            <stop stop-color="#0461DF" />
            <stop offset="1" stop-opacity="0" />
        </linearGradient>
        <radialGradient id="paint22_radial_1720_3594" cx="0" cy="0" r="1" gradientUnits="userSpaceOnUse"
            gradientTransform="translate(7.49989 9.25) rotate(90) scale(11 10.9998)">
            <stop stop-color="#2DE9FB" />
            <stop offset="1" stop-color="#0486F3" />
        </radialGradient>
        <linearGradient id="paint23_linear_1720_3594" x1="1.75098" y1="9" x2="1.75098" y2="17"
            gradientUnits="userSpaceOnUse">
            <stop stop-color="#0E438A" />
            <stop offset="1" stop-color="#0461DF" />
        </linearGradient>
        <linearGradient id="paint24_linear_1720_3594" x1="1.75098" y1="9" x2="1.75098" y2="17"
            gradientUnits="userSpaceOnUse">
            <stop stop-color="#0486F3" />
            <stop offset="1" stop-color="#2DE9FB" />
        </linearGradient>
        <linearGradient id="paint25_linear_1720_3594" x1="7.62401" y1="10.2607" x2="7.62401" y2="12.2607"
            gradientUnits="userSpaceOnUse">
            <stop stop-color="#0461DF" />
            <stop offset="1" stop-color="#1462CC" />
        </linearGradient>
        <linearGradient id="paint26_linear_1720_3594" x1="7.62401" y1="10.2607" x2="7.62401" y2="12.2607"
            gradientUnits="userSpaceOnUse">
            <stop stop-color="#0486F3" />
            <stop offset="1" stop-color="#2DE9FB" />
        </linearGradient>
        <linearGradient id="paint27_linear_1720_3594" x1="15" y1="28.75" x2="10.25" y2="28.75"
            gradientUnits="userSpaceOnUse">
            <stop stop-color="#2DE9FB" />
            <stop offset="1" stop-color="white" />
        </linearGradient>
        <clipPath id="clip0_1720_3594">
            <rect width="32" height="32" fill="white" />
        </clipPath>
    </defs>
</svg>