<svg width="90" height="89" viewBox="0 0 90 89" fill="none" xmlns="http://www.w3.org/2000/svg">
    <g filter="url(#filter0_d_1743_1314)">
        <g filter="url(#filter1_d_1743_1314)">
            <path
                d="M46.125 35.8125H59.25V79.125C59.25 82.7494 56.3119 85.6875 52.6875 85.6875C49.0631 85.6875 46.125 82.7494 46.125 79.125V35.8125Z"
                fill="url(#paint0_linear_1743_1314)" />
            <path
                d="M46.125 35.8125H59.25V79.125C59.25 82.7494 56.3119 85.6875 52.6875 85.6875C49.0631 85.6875 46.125 82.7494 46.125 79.125V35.8125Z"
                fill="url(#paint1_linear_1743_1314)" fill-opacity="0.2" style="mix-blend-mode:hard-light" />
            <path
                d="M46.4531 36.1406H58.9219V79.125C58.9219 82.5682 56.1307 85.3594 52.6875 85.3594C49.2444 85.3594 46.4531 82.5682 46.4531 79.125V36.1406Z"
                stroke="url(#paint2_linear_1743_1314)" stroke-opacity="0.3" stroke-width="0.65625" />
            <path
                d="M46.125 77.8125C52.0313 77.8124 52.0313 77.8125 59.25 77.8125V79.125C59.25 82.7494 56.3119 85.6875 52.6875 85.6875C49.0631 85.6875 46.125 82.7494 46.125 79.125V77.8125Z"
                fill="url(#paint3_radial_1743_1314)" />
            <path
                d="M46.4531 78.1406H58.9219V79.125C58.9219 82.5682 56.1307 85.3594 52.6875 85.3594C49.2444 85.3594 46.4531 82.5682 46.4531 79.125V78.1406Z"
                stroke="url(#paint4_linear_1743_1314)" stroke-opacity="0.2" stroke-width="0.65625" />
        </g>
        <g filter="url(#filter2_d_1743_1314)">
            <ellipse cx="19.6872" cy="19.6875" rx="19.6872" ry="19.6875" transform="matrix(-1 0 0 1 85.5029 17.4375)"
                fill="url(#paint5_radial_1743_1314)" />
            <path
                d="M76.6401 37.125C76.6401 39.9902 77.1489 42.5684 77.9581 44.4181C78.3629 45.3434 78.8365 46.0716 79.3457 46.564C79.8534 47.0547 80.3801 47.2969 80.9058 47.2969C81.4315 47.2969 81.9581 47.0547 82.4658 46.564C82.975 46.0716 83.4486 45.3434 83.8534 44.4181C84.6627 42.5684 85.1714 39.9902 85.1714 37.125C85.1714 34.2598 84.6627 31.6816 83.8534 29.8319C83.4486 28.9066 82.975 28.1784 82.4658 27.686C81.9581 27.1953 81.4315 26.9531 80.9058 26.9531C80.3801 26.9531 79.8534 27.1953 79.3457 27.686C78.8365 28.1784 78.3629 28.9066 77.9581 29.8319C77.1489 31.6816 76.6401 34.2598 76.6401 37.125Z"
                fill="url(#paint6_linear_1743_1314)" stroke="url(#paint7_linear_1743_1314)" stroke-width="0.65625" />
            <ellipse cx="2.62496" cy="2.625" rx="2.62496" ry="2.625" transform="matrix(-1 0 0 1 68.1135 29.9341)"
                fill="url(#paint8_linear_1743_1314)" />
            <ellipse cx="2.62496" cy="2.625" rx="2.62496" ry="2.625" transform="matrix(-1 0 0 1 68.1135 29.9341)"
                fill="black" fill-opacity="0.2" />
            <ellipse cx="2.62496" cy="2.625" rx="2.62496" ry="2.625" transform="matrix(-1 0 0 1 68.1135 29.9341)"
                stroke="url(#paint9_linear_1743_1314)" stroke-width="0.65625" />
        </g>
    </g>
    <g filter="url(#filter3_d_1743_1314)">
        <path
            d="M73.6875 60.75L74.1399 61.9298C75.4729 65.4057 78.2193 68.1521 81.6952 69.4851L82.875 69.9375L81.6952 70.3899C78.2193 71.7229 75.4729 74.4693 74.1399 77.9452L73.6875 79.125L73.2351 77.9452C71.9021 74.4693 69.1557 71.7229 65.6798 70.3899L64.5 69.9375L65.6798 69.4851C69.1557 68.1521 71.9021 65.4057 73.2351 61.9298L73.6875 60.75Z"
            fill="url(#paint10_linear_1743_1314)" />
        <path
            d="M66.3141 69.9375C69.6424 68.5406 72.2906 65.8924 73.6875 62.5641C75.0844 65.8924 77.7326 68.5406 81.0609 69.9375C77.7326 71.3344 75.0844 73.9826 73.6875 77.3109C72.2906 73.9826 69.6424 71.3344 66.3141 69.9375Z"
            stroke="url(#paint11_linear_1743_1314)" stroke-width="1.3125" />
    </g>
    <g filter="url(#filter4_d_1743_1314)">
        <path
            d="M43.5 5.625L43.5886 5.85608C44.9216 9.33204 47.668 12.0784 51.1439 13.4114L51.375 13.5L51.1439 13.5886C47.668 14.9216 44.9216 17.668 43.5886 21.1439L43.5 21.375L43.4114 21.1439C42.0784 17.668 39.332 14.9216 35.8561 13.5886L35.625 13.5L35.8561 13.4114C39.332 12.0784 42.0784 9.33204 43.4114 5.85607L43.5 5.625Z"
            fill="url(#paint12_linear_1743_1314)" />
        <path
            d="M43.5 7.28555C44.8373 9.97919 47.0208 12.1627 49.7145 13.5C47.0208 14.8373 44.8373 17.0208 43.5 19.7145C42.1627 17.0208 39.9792 14.8373 37.2855 13.5C39.9792 12.1627 42.1627 9.97919 43.5 7.28555Z"
            stroke="url(#paint13_linear_1743_1314)" stroke-width="1.3125" />
    </g>
    <g filter="url(#filter5_d_1743_1314)">
        <path
            d="M13.3125 60.75C14.4703 63.7692 16.8558 66.1547 19.875 67.3125C16.8558 68.4703 14.4703 70.8558 13.3125 73.875C12.1547 70.8558 9.7692 68.4703 6.75 67.3125C9.7692 66.1547 12.1547 63.7692 13.3125 60.75Z"
            fill="url(#paint14_linear_1743_1314)" />
        <path
            d="M8.32997 67.3125C10.4495 66.1852 12.1852 64.4495 13.3125 62.33C14.4398 64.4495 16.1755 66.1852 18.295 67.3125C16.1755 68.4398 14.4398 70.1755 13.3125 72.295C12.1852 70.1755 10.4495 68.4398 8.32997 67.3125Z"
            stroke="url(#paint15_linear_1743_1314)" stroke-width="1.3125" />
    </g>
    <path d="M46.125 77.1562H59.25" stroke="url(#paint16_linear_1743_1314)" stroke-opacity="0.61"
        stroke-width="1.3125" />
    <g filter="url(#filter6_d_1743_1314)">
        <g filter="url(#filter7_d_1743_1314)">
            <path
                d="M40.8762 35.8125H27.7512V79.125C27.7512 82.7494 30.6894 85.6875 34.3137 85.6875C37.9381 85.6875 40.8762 82.7494 40.8762 79.125V35.8125Z"
                fill="url(#paint17_linear_1743_1314)" />
            <path
                d="M40.8762 35.8125H27.7512V79.125C27.7512 82.7494 30.6894 85.6875 34.3137 85.6875C37.9381 85.6875 40.8762 82.7494 40.8762 79.125V35.8125Z"
                fill="url(#paint18_linear_1743_1314)" fill-opacity="0.2" style="mix-blend-mode:hard-light" />
            <path
                d="M40.5481 36.1406H28.0793V79.125C28.0793 82.5682 30.8706 85.3594 34.3137 85.3594C37.7569 85.3594 40.5481 82.5682 40.5481 79.125V36.1406Z"
                stroke="url(#paint19_linear_1743_1314)" stroke-opacity="0.3" stroke-width="0.65625" />
            <path
                d="M40.8765 77.8125C34.9702 77.8124 34.9702 77.8125 27.7515 77.8125V79.125C27.7515 82.7494 30.6896 85.6875 34.314 85.6875C37.9383 85.6875 40.8765 82.7494 40.8765 79.125V77.8125Z"
                fill="url(#paint20_radial_1743_1314)" />
            <path
                d="M40.5483 78.1406H28.0796V79.125C28.0796 82.5682 30.8708 85.3594 34.314 85.3594C37.7571 85.3594 40.5483 82.5682 40.5483 79.125V78.1406Z"
                stroke="url(#paint21_linear_1743_1314)" stroke-opacity="0.2" stroke-width="0.65625" />
        </g>
        <g filter="url(#filter8_d_1743_1314)">
            <ellipse cx="21.1845" cy="37.125" rx="19.6872" ry="19.6875" fill="url(#paint22_radial_1743_1314)" />
            <path
                d="M10.3601 37.125C10.3601 39.9902 9.85137 42.5684 9.04214 44.4181C8.63731 45.3434 8.16374 46.0716 7.65451 46.564C7.14686 47.0547 6.62018 47.2969 6.09448 47.2969C5.56878 47.2969 5.0421 47.0547 4.53446 46.564C4.02523 46.0716 3.55165 45.3434 3.14682 44.4181C2.33759 42.5684 1.82886 39.9902 1.82886 37.125C1.82886 34.2598 2.33759 31.6816 3.14682 29.8319C3.55165 28.9066 4.02523 28.1784 4.53446 27.686C5.0421 27.1953 5.56878 26.9531 6.09448 26.9531C6.62018 26.9531 7.14686 27.1953 7.65451 27.686C8.16374 28.1784 8.63731 28.9066 9.04214 29.8319C9.85137 31.6816 10.3601 34.2598 10.3601 37.125Z"
                fill="url(#paint23_linear_1743_1314)" stroke="url(#paint24_linear_1743_1314)" stroke-width="0.65625" />
            <ellipse cx="21.5119" cy="32.5591" rx="2.62496" ry="2.625" fill="url(#paint25_linear_1743_1314)" />
            <ellipse cx="21.5119" cy="32.5591" rx="2.62496" ry="2.625" fill="black" fill-opacity="0.2" />
            <ellipse cx="21.5119" cy="32.5591" rx="2.62496" ry="2.625" stroke="url(#paint26_linear_1743_1314)"
                stroke-width="0.65625" />
        </g>
    </g>
    <path d="M27.75 77.1562H40.875" stroke="url(#paint27_linear_1743_1314)" stroke-opacity="0.61"
        stroke-width="1.3125" />
    <defs>
        <filter id="filter0_d_1743_1314" x="44.8125" y="17.4375" width="42.0029" height="70.875"
            filterUnits="userSpaceOnUse" color-interpolation-filters="sRGB">
            <feFlood flood-opacity="0" result="BackgroundImageFix" />
            <feColorMatrix in="SourceAlpha" type="matrix" values="0 0 0 0 0 0 0 0 0 0 0 0 0 0 0 0 0 0 127 0"
                result="hardAlpha" />
            <feOffset dy="1.3125" />
            <feGaussianBlur stdDeviation="0.65625" />
            <feComposite in2="hardAlpha" operator="out" />
            <feColorMatrix type="matrix" values="0 0 0 0 0 0 0 0 0 0 0 0 0 0 0 0 0 0 0.1 0" />
            <feBlend mode="normal" in2="BackgroundImageFix" result="effect1_dropShadow_1743_1314" />
            <feBlend mode="normal" in="SourceGraphic" in2="effect1_dropShadow_1743_1314" result="shape" />
        </filter>
        <filter id="filter1_d_1743_1314" x="44.8125" y="35.8125" width="15.75" height="52.5"
            filterUnits="userSpaceOnUse" color-interpolation-filters="sRGB">
            <feFlood flood-opacity="0" result="BackgroundImageFix" />
            <feColorMatrix in="SourceAlpha" type="matrix" values="0 0 0 0 0 0 0 0 0 0 0 0 0 0 0 0 0 0 127 0"
                result="hardAlpha" />
            <feOffset dy="1.3125" />
            <feGaussianBlur stdDeviation="0.65625" />
            <feComposite in2="hardAlpha" operator="out" />
            <feColorMatrix type="matrix" values="0 0 0 0 0.0541667 0 0 0 0 0.261187 0 0 0 0 0.541667 0 0 0 0.15 0" />
            <feBlend mode="normal" in2="BackgroundImageFix" result="effect1_dropShadow_1743_1314" />
            <feBlend mode="normal" in="SourceGraphic" in2="effect1_dropShadow_1743_1314" result="shape" />
        </filter>
        <filter id="filter2_d_1743_1314" x="44.8159" y="17.4375" width="41.9995" height="42"
            filterUnits="userSpaceOnUse" color-interpolation-filters="sRGB">
            <feFlood flood-opacity="0" result="BackgroundImageFix" />
            <feColorMatrix in="SourceAlpha" type="matrix" values="0 0 0 0 0 0 0 0 0 0 0 0 0 0 0 0 0 0 127 0"
                result="hardAlpha" />
            <feOffset dy="1.3125" />
            <feGaussianBlur stdDeviation="0.65625" />
            <feComposite in2="hardAlpha" operator="out" />
            <feColorMatrix type="matrix" values="0 0 0 0 0.0541667 0 0 0 0 0.261187 0 0 0 0 0.541667 0 0 0 0.1 0" />
            <feBlend mode="multiply" in2="BackgroundImageFix" result="effect1_dropShadow_1743_1314" />
            <feBlend mode="normal" in="SourceGraphic" in2="effect1_dropShadow_1743_1314" result="shape" />
        </filter>
        <filter id="filter3_d_1743_1314" x="57.9375" y="55.5" width="31.5" height="31.5" filterUnits="userSpaceOnUse"
            color-interpolation-filters="sRGB">
            <feFlood flood-opacity="0" result="BackgroundImageFix" />
            <feColorMatrix in="SourceAlpha" type="matrix" values="0 0 0 0 0 0 0 0 0 0 0 0 0 0 0 0 0 0 127 0"
                result="hardAlpha" />
            <feOffset dy="1.3125" />
            <feGaussianBlur stdDeviation="3.28125" />
            <feComposite in2="hardAlpha" operator="out" />
            <feColorMatrix type="matrix" values="0 0 0 0 0.996078 0 0 0 0 0.756863 0 0 0 0 0.0313726 0 0 0 0.2 0" />
            <feBlend mode="normal" in2="BackgroundImageFix" result="effect1_dropShadow_1743_1314" />
            <feBlend mode="normal" in="SourceGraphic" in2="effect1_dropShadow_1743_1314" result="shape" />
        </filter>
        <filter id="filter4_d_1743_1314" x="29.0625" y="0.375" width="28.875" height="28.875"
            filterUnits="userSpaceOnUse" color-interpolation-filters="sRGB">
            <feFlood flood-opacity="0" result="BackgroundImageFix" />
            <feColorMatrix in="SourceAlpha" type="matrix" values="0 0 0 0 0 0 0 0 0 0 0 0 0 0 0 0 0 0 127 0"
                result="hardAlpha" />
            <feOffset dy="1.3125" />
            <feGaussianBlur stdDeviation="3.28125" />
            <feComposite in2="hardAlpha" operator="out" />
            <feColorMatrix type="matrix" values="0 0 0 0 0.996078 0 0 0 0 0.756863 0 0 0 0 0.0313726 0 0 0 0.2 0" />
            <feBlend mode="normal" in2="BackgroundImageFix" result="effect1_dropShadow_1743_1314" />
            <feBlend mode="normal" in="SourceGraphic" in2="effect1_dropShadow_1743_1314" result="shape" />
        </filter>
        <filter id="filter5_d_1743_1314" x="0.1875" y="55.5" width="26.25" height="26.25" filterUnits="userSpaceOnUse"
            color-interpolation-filters="sRGB">
            <feFlood flood-opacity="0" result="BackgroundImageFix" />
            <feColorMatrix in="SourceAlpha" type="matrix" values="0 0 0 0 0 0 0 0 0 0 0 0 0 0 0 0 0 0 127 0"
                result="hardAlpha" />
            <feOffset dy="1.3125" />
            <feGaussianBlur stdDeviation="3.28125" />
            <feComposite in2="hardAlpha" operator="out" />
            <feColorMatrix type="matrix" values="0 0 0 0 0.996078 0 0 0 0 0.756863 0 0 0 0 0.0313726 0 0 0 0.2 0" />
            <feBlend mode="normal" in2="BackgroundImageFix" result="effect1_dropShadow_1743_1314" />
            <feBlend mode="normal" in="SourceGraphic" in2="effect1_dropShadow_1743_1314" result="shape" />
        </filter>
        <filter id="filter6_d_1743_1314" x="0.184814" y="17.4375" width="42.0042" height="70.875"
            filterUnits="userSpaceOnUse" color-interpolation-filters="sRGB">
            <feFlood flood-opacity="0" result="BackgroundImageFix" />
            <feColorMatrix in="SourceAlpha" type="matrix" values="0 0 0 0 0 0 0 0 0 0 0 0 0 0 0 0 0 0 127 0"
                result="hardAlpha" />
            <feOffset dy="1.3125" />
            <feGaussianBlur stdDeviation="0.65625" />
            <feComposite in2="hardAlpha" operator="out" />
            <feColorMatrix type="matrix" values="0 0 0 0 0 0 0 0 0 0 0 0 0 0 0 0 0 0 0.1 0" />
            <feBlend mode="normal" in2="BackgroundImageFix" result="effect1_dropShadow_1743_1314" />
            <feBlend mode="normal" in="SourceGraphic" in2="effect1_dropShadow_1743_1314" result="shape" />
        </filter>
        <filter id="filter7_d_1743_1314" x="26.4387" y="35.8125" width="15.7502" height="52.5"
            filterUnits="userSpaceOnUse" color-interpolation-filters="sRGB">
            <feFlood flood-opacity="0" result="BackgroundImageFix" />
            <feColorMatrix in="SourceAlpha" type="matrix" values="0 0 0 0 0 0 0 0 0 0 0 0 0 0 0 0 0 0 127 0"
                result="hardAlpha" />
            <feOffset dy="1.3125" />
            <feGaussianBlur stdDeviation="0.65625" />
            <feComposite in2="hardAlpha" operator="out" />
            <feColorMatrix type="matrix" values="0 0 0 0 0.0541667 0 0 0 0 0.261187 0 0 0 0 0.541667 0 0 0 0.15 0" />
            <feBlend mode="normal" in2="BackgroundImageFix" result="effect1_dropShadow_1743_1314" />
            <feBlend mode="normal" in="SourceGraphic" in2="effect1_dropShadow_1743_1314" result="shape" />
        </filter>
        <filter id="filter8_d_1743_1314" x="0.184814" y="17.4375" width="41.9995" height="42"
            filterUnits="userSpaceOnUse" color-interpolation-filters="sRGB">
            <feFlood flood-opacity="0" result="BackgroundImageFix" />
            <feColorMatrix in="SourceAlpha" type="matrix" values="0 0 0 0 0 0 0 0 0 0 0 0 0 0 0 0 0 0 127 0"
                result="hardAlpha" />
            <feOffset dy="1.3125" />
            <feGaussianBlur stdDeviation="0.65625" />
            <feComposite in2="hardAlpha" operator="out" />
            <feColorMatrix type="matrix" values="0 0 0 0 0.0541667 0 0 0 0 0.261187 0 0 0 0 0.541667 0 0 0 0.1 0" />
            <feBlend mode="multiply" in2="BackgroundImageFix" result="effect1_dropShadow_1743_1314" />
            <feBlend mode="normal" in="SourceGraphic" in2="effect1_dropShadow_1743_1314" result="shape" />
        </filter>
        <linearGradient id="paint0_linear_1743_1314" x1="55.3125" y1="55.5" x2="26.4375" y2="87.6563"
            gradientUnits="userSpaceOnUse">
            <stop stop-color="#0486F3" />
            <stop offset="0.535308" stop-color="#2CDAEB" />
            <stop offset="1" stop-color="#0486F3" />
            <stop offset="1" stop-color="#0486F3" />
        </linearGradient>
        <linearGradient id="paint1_linear_1743_1314" x1="56.625" y1="61.4063" x2="46.7813" y2="62.0625"
            gradientUnits="userSpaceOnUse">
            <stop stop-color="#0C1B2E" />
            <stop offset="1" stop-color="white" />
        </linearGradient>
        <linearGradient id="paint2_linear_1743_1314" x1="46.125" y1="70.5938" x2="59.25" y2="69.9375"
            gradientUnits="userSpaceOnUse">
            <stop stop-opacity="0" />
            <stop offset="0.755208" stop-color="#0461DF" />
        </linearGradient>
        <radialGradient id="paint3_radial_1743_1314" cx="0" cy="0" r="1" gradientUnits="userSpaceOnUse"
            gradientTransform="translate(50.0625 87.6562) rotate(-71.565) scale(8.30098 13.835)">
            <stop stop-color="#0461DF" stop-opacity="0" />
            <stop offset="1" stop-color="#0461DF" />
        </radialGradient>
        <linearGradient id="paint4_linear_1743_1314" x1="52.6875" y1="77.8125" x2="52.6875" y2="85.6875"
            gradientUnits="userSpaceOnUse">
            <stop stop-color="#0461DF" />
            <stop offset="1" stop-opacity="0" />
        </linearGradient>
        <radialGradient id="paint5_radial_1743_1314" cx="0" cy="0" r="1" gradientUnits="userSpaceOnUse"
            gradientTransform="translate(19.6872 9.84375) rotate(90) scale(28.875 28.8746)">
            <stop stop-color="#2DE9FB" />
            <stop offset="1" stop-color="#0486F3" />
        </radialGradient>
        <linearGradient id="paint6_linear_1743_1314" x1="80.9058" y1="26.625" x2="80.9058" y2="47.625"
            gradientUnits="userSpaceOnUse">
            <stop stop-color="#0E438A" />
            <stop offset="1" stop-color="#0461DF" />
        </linearGradient>
        <linearGradient id="paint7_linear_1743_1314" x1="80.9058" y1="26.625" x2="80.9058" y2="47.625"
            gradientUnits="userSpaceOnUse">
            <stop stop-color="#0486F3" />
            <stop offset="1" stop-color="#2DE9FB" />
        </linearGradient>
        <linearGradient id="paint8_linear_1743_1314" x1="2.62496" y1="0" x2="2.62496" y2="5.25"
            gradientUnits="userSpaceOnUse">
            <stop stop-color="#0461DF" />
            <stop offset="1" stop-color="#1462CC" />
        </linearGradient>
        <linearGradient id="paint9_linear_1743_1314" x1="2.62496" y1="0" x2="2.62496" y2="5.25"
            gradientUnits="userSpaceOnUse">
            <stop stop-color="#0486F3" />
            <stop offset="1" stop-color="#2DE9FB" />
        </linearGradient>
        <linearGradient id="paint10_linear_1743_1314" x1="73.6875" y1="60.75" x2="73.6875" y2="79.125"
            gradientUnits="userSpaceOnUse">
            <stop stop-color="#FFB800" />
            <stop offset="1" stop-color="#FBDC1F" />
        </linearGradient>
        <linearGradient id="paint11_linear_1743_1314" x1="73.6875" y1="60.75" x2="73.6875" y2="79.125"
            gradientUnits="userSpaceOnUse">
            <stop offset="0.223958" stop-color="#FEB901" />
            <stop offset="0.703125" stop-color="#FBDB1E" />
        </linearGradient>
        <linearGradient id="paint12_linear_1743_1314" x1="43.5" y1="5.625" x2="43.5" y2="21.375"
            gradientUnits="userSpaceOnUse">
            <stop stop-color="#FFB800" />
            <stop offset="1" stop-color="#FBDC1F" />
        </linearGradient>
        <linearGradient id="paint13_linear_1743_1314" x1="43.5" y1="5.625" x2="43.5" y2="21.375"
            gradientUnits="userSpaceOnUse">
            <stop offset="0.223958" stop-color="#FEB901" />
            <stop offset="0.703125" stop-color="#FBDB1E" />
        </linearGradient>
        <linearGradient id="paint14_linear_1743_1314" x1="13.3125" y1="60.75" x2="13.3125" y2="73.875"
            gradientUnits="userSpaceOnUse">
            <stop stop-color="#FFB800" />
            <stop offset="1" stop-color="#FBDC1F" />
        </linearGradient>
        <linearGradient id="paint15_linear_1743_1314" x1="13.3125" y1="60.75" x2="13.3125" y2="73.875"
            gradientUnits="userSpaceOnUse">
            <stop offset="0.223958" stop-color="#FEB901" />
            <stop offset="0.703125" stop-color="#FBDB1E" />
        </linearGradient>
        <linearGradient id="paint16_linear_1743_1314" x1="59.25" y1="77.6562" x2="46.7813" y2="77.6562"
            gradientUnits="userSpaceOnUse">
            <stop stop-color="#2DE9FB" />
            <stop offset="1" stop-color="white" />
        </linearGradient>
        <linearGradient id="paint17_linear_1743_1314" x1="31.6887" y1="55.5" x2="60.5637" y2="87.6563"
            gradientUnits="userSpaceOnUse">
            <stop stop-color="#0486F3" />
            <stop offset="0.535308" stop-color="#2CDAEB" />
            <stop offset="1" stop-color="#0486F3" />
            <stop offset="1" stop-color="#0486F3" />
        </linearGradient>
        <linearGradient id="paint18_linear_1743_1314" x1="30.3762" y1="61.4063" x2="40.22" y2="62.0625"
            gradientUnits="userSpaceOnUse">
            <stop stop-color="#0C1B2E" />
            <stop offset="1" stop-color="white" />
        </linearGradient>
        <linearGradient id="paint19_linear_1743_1314" x1="40.8762" y1="70.5938" x2="27.7512" y2="69.9375"
            gradientUnits="userSpaceOnUse">
            <stop stop-opacity="0" />
            <stop offset="0.755208" stop-color="#0461DF" />
        </linearGradient>
        <radialGradient id="paint20_radial_1743_1314" cx="0" cy="0" r="1" gradientUnits="userSpaceOnUse"
            gradientTransform="translate(36.939 87.6562) rotate(-108.435) scale(8.30098 13.835)">
            <stop stop-color="#0461DF" stop-opacity="0" />
            <stop offset="1" stop-color="#0461DF" />
        </radialGradient>
        <linearGradient id="paint21_linear_1743_1314" x1="34.314" y1="77.8125" x2="34.314" y2="85.6875"
            gradientUnits="userSpaceOnUse">
            <stop stop-color="#0461DF" />
            <stop offset="1" stop-opacity="0" />
        </linearGradient>
        <radialGradient id="paint22_radial_1743_1314" cx="0" cy="0" r="1" gradientUnits="userSpaceOnUse"
            gradientTransform="translate(21.1845 27.2812) rotate(90) scale(28.875 28.8746)">
            <stop stop-color="#2DE9FB" />
            <stop offset="1" stop-color="#0486F3" />
        </radialGradient>
        <linearGradient id="paint23_linear_1743_1314" x1="6.09448" y1="26.625" x2="6.09448" y2="47.625"
            gradientUnits="userSpaceOnUse">
            <stop stop-color="#0E438A" />
            <stop offset="1" stop-color="#0461DF" />
        </linearGradient>
        <linearGradient id="paint24_linear_1743_1314" x1="6.09448" y1="26.625" x2="6.09448" y2="47.625"
            gradientUnits="userSpaceOnUse">
            <stop stop-color="#0486F3" />
            <stop offset="1" stop-color="#2DE9FB" />
        </linearGradient>
        <linearGradient id="paint25_linear_1743_1314" x1="21.5119" y1="29.9341" x2="21.5119" y2="35.1841"
            gradientUnits="userSpaceOnUse">
            <stop stop-color="#0461DF" />
            <stop offset="1" stop-color="#1462CC" />
        </linearGradient>
        <linearGradient id="paint26_linear_1743_1314" x1="21.5119" y1="29.9341" x2="21.5119" y2="35.1841"
            gradientUnits="userSpaceOnUse">
            <stop stop-color="#0486F3" />
            <stop offset="1" stop-color="#2DE9FB" />
        </linearGradient>
        <linearGradient id="paint27_linear_1743_1314" x1="40.875" y1="77.6562" x2="28.4063" y2="77.6562"
            gradientUnits="userSpaceOnUse">
            <stop stop-color="#2DE9FB" />
            <stop offset="1" stop-color="white" />
        </linearGradient>
    </defs>
</svg>