<svg width="81" height="75" viewBox="0 0 81 75" fill="none" xmlns="http://www.w3.org/2000/svg">
    <g filter="url(#filter0_d_1743_1294)">
        <rect x="4.5" y="3" width="60" height="12" rx="6" fill="url(#paint0_linear_1743_1294)" />
        <rect x="4.5" y="27" width="72" height="12" rx="6" fill="url(#paint1_linear_1743_1294)" />
        <rect x="4.5" y="51" width="36" height="12" rx="6" fill="url(#paint2_linear_1743_1294)" />
        <g filter="url(#filter1_i_1743_1294)">
            <path
                d="M41.5558 33.0456L74.371 44.6779C74.6482 44.7762 74.8476 45.0192 74.8897 45.309C74.93 45.6043 74.8106 45.8904 74.5746 46.0629L66.5034 51.9699L76.2677 61.7347C76.4222 61.8892 76.4998 62.092 76.4998 62.2947C76.4998 62.4975 76.4222 62.7002 76.2677 62.8547L70.3546 68.7678C70.045 69.0774 69.5446 69.0774 69.2349 68.7678L59.4692 59.0035L53.5631 67.0753C53.3897 67.312 53.0999 67.4341 52.8092 67.3913C52.5185 67.3486 52.2755 67.1489 52.1781 66.8726L40.5458 34.0575C40.4435 33.7692 40.5156 33.4486 40.7317 33.2331C40.9467 33.0163 41.2676 32.9433 41.5558 33.0456Z"
                fill="white" />
        </g>
    </g>
    <defs>
        <filter id="filter0_d_1743_1294" x="0.5" y="1" width="80" height="74" filterUnits="userSpaceOnUse"
            color-interpolation-filters="sRGB">
            <feFlood flood-opacity="0" result="BackgroundImageFix" />
            <feColorMatrix in="SourceAlpha" type="matrix" values="0 0 0 0 0 0 0 0 0 0 0 0 0 0 0 0 0 0 127 0"
                result="hardAlpha" />
            <feOffset dy="2" />
            <feGaussianBlur stdDeviation="2" />
            <feComposite in2="hardAlpha" operator="out" />
            <feColorMatrix type="matrix" values="0 0 0 0 0 0 0 0 0 0 0 0 0 0 0 0 0 0 0.15 0" />
            <feBlend mode="normal" in2="BackgroundImageFix" result="effect1_dropShadow_1743_1294" />
            <feBlend mode="normal" in="SourceGraphic" in2="effect1_dropShadow_1743_1294" result="shape" />
        </filter>
        <filter id="filter1_i_1743_1294" x="40.5" y="33" width="38.9998" height="39" filterUnits="userSpaceOnUse"
            color-interpolation-filters="sRGB">
            <feFlood flood-opacity="0" result="BackgroundImageFix" />
            <feBlend mode="normal" in="SourceGraphic" in2="BackgroundImageFix" result="shape" />
            <feColorMatrix in="SourceAlpha" type="matrix" values="0 0 0 0 0 0 0 0 0 0 0 0 0 0 0 0 0 0 127 0"
                result="hardAlpha" />
            <feOffset dx="3" dy="3" />
            <feGaussianBlur stdDeviation="4.5" />
            <feComposite in2="hardAlpha" operator="arithmetic" k2="-1" k3="1" />
            <feColorMatrix type="matrix" values="0 0 0 0 0 0 0 0 0 0 0 0 0 0 0 0 0 0 0.1 0" />
            <feBlend mode="normal" in2="shape" result="effect1_innerShadow_1743_1294" />
        </filter>
        <linearGradient id="paint0_linear_1743_1294" x1="34.5" y1="3" x2="34.5" y2="15" gradientUnits="userSpaceOnUse">
            <stop stop-color="#8633F3" />
            <stop offset="1" stop-color="#5F10B6" />
        </linearGradient>
        <linearGradient id="paint1_linear_1743_1294" x1="40.5" y1="27" x2="40.5" y2="39" gradientUnits="userSpaceOnUse">
            <stop stop-color="#FF4DCC" />
            <stop offset="1" stop-color="#AB24AB" />
        </linearGradient>
        <linearGradient id="paint2_linear_1743_1294" x1="22.5" y1="51" x2="22.5" y2="63" gradientUnits="userSpaceOnUse">
            <stop stop-color="#8633F3" />
            <stop offset="1" stop-color="#5C0EAF" />
        </linearGradient>
    </defs>
</svg>