<svg width="84" height="84" viewBox="0 0 84 84" fill="none" xmlns="http://www.w3.org/2000/svg">
    <g clip-path="url(#clip0_1844_6856)">
        <path
            d="M44.625 36.75C44.625 33.075 47.5125 30.1875 51.1875 30.1875C54.8625 30.1875 57.75 33.075 57.75 36.75V76.125C57.75 79.8 54.8625 82.6875 51.1875 82.6875C47.5125 82.6875 44.625 79.8 44.625 76.125V36.75ZM26.25 36.75C26.25 33.075 29.1375 30.1875 32.8125 30.1875C36.4875 30.1875 39.375 33.075 39.375 36.75V76.125C39.375 79.8 36.4875 82.6875 32.8125 82.6875C29.1375 82.6875 26.25 79.8 26.25 76.125V36.75Z"
            fill="white" fill-opacity="0.8" />
        <path
            d="M44.625 34.125C44.625 45.0187 53.4188 53.8125 64.3125 53.8125C75.2063 53.8125 84 45.0187 84 34.125C84 23.2312 75.2063 14.4375 64.3125 14.4375C53.4188 14.4375 44.625 23.2312 44.625 34.125ZM39.375 34.125C39.375 45.0187 30.5813 53.8125 19.6875 53.8125C8.79375 53.8125 0 45.0187 0 34.125C0 23.2312 8.79375 14.4375 19.6875 14.4375C30.5813 14.4375 39.375 23.2312 39.375 34.125ZM72.1875 57.75L72.5812 58.9313C73.8937 62.3438 76.65 65.1 80.1937 66.5438L81.375 66.9375L80.1937 67.3312C76.7812 68.6437 74.025 71.4 72.5812 74.9437L72.1875 76.125L71.7938 74.9437C70.4813 71.5312 67.725 68.775 64.1813 67.3312L63 66.9375L64.1813 66.5438C67.5938 65.2313 70.35 62.475 71.7938 58.9313L72.1875 57.75ZM42 2.625L42.1312 2.8875C43.4437 6.3 46.2 9.05625 49.7438 10.5H49.875L49.6125 10.6313C46.2 11.9438 43.4437 14.7 42 18.2437V18.375L41.8687 18.1125C40.5562 14.7 37.8 11.9438 34.2563 10.5H34.125L34.3875 10.3688C37.8 9.05625 40.5563 6.3 42 2.75625V2.625ZM11.8125 57.75L11.9438 57.8812C12.9938 60.7687 15.3562 63.1313 18.2437 64.1813L18.375 64.3125L18.2437 64.4437C15.3562 65.4937 12.9938 67.8563 11.9438 70.7438L11.8125 70.875L11.6812 70.7438C10.6312 67.8563 8.26875 65.4937 5.38125 64.4437L5.25 64.3125L5.38125 64.1813C8.26875 63.1313 10.6312 60.7687 11.6812 57.8812L11.8125 57.75Z"
            fill="white" />
    </g>
    <defs>
        <clipPath id="clip0_1844_6856">
            <rect width="84" height="84" fill="white" />
        </clipPath>
    </defs>
</svg>