<svg width="180" height="52" viewBox="0 0 180 52" fill="none" xmlns="http://www.w3.org/2000/svg">
<rect x="0.75" y="0.75" width="178.5" height="50.5" rx="5.25" fill="black"/>
<path d="M12.9133 9.80032C12.5216 10.2001 12.2949 10.8224 12.2949 11.6284V40.3779C12.2949 41.1839 12.5216 41.8063 12.9133 42.2061L13.0099 42.2938L29.5332 26.1901V25.8098L13.0099 9.70607L12.9133 9.80032Z" fill="white"/>
<path d="M37.0349 31.5607L31.5332 26.19V25.8098L37.0415 20.4392L37.1649 20.509L43.6882 24.1279C45.5499 25.1549 45.5499 26.8449 43.6882 27.8784L37.1649 31.4908L37.0349 31.5607V31.5607Z" fill="white"/>
<path d="M36.165 32.4908L30.5333 27L13.9133 43.2061C14.5317 43.8398 15.54 43.9162 16.6867 43.2825L36.165 32.4908" fill="white"/>
<path d="M36.165 19.5091L16.6867 8.71744C15.54 8.09019 14.5317 8.16657 13.9133 8.80032L30.5333 24.9999L36.165 19.5091Z" fill="white"/>
<path d="M63.2231 13.3169C63.2231 14.4024 62.8898 15.2718 62.2331 15.9201C61.4781 16.6887 60.4948 17.0755 59.2898 17.0755C58.1381 17.0755 57.1548 16.6822 56.3481 15.9071C55.5398 15.1206 55.1365 14.1554 55.1365 13C55.1365 11.8446 55.5398 10.8794 56.3481 10.0994C57.1548 9.31775 58.1381 8.9245 59.2898 8.9245C59.8631 8.9245 60.4098 9.03987 60.9315 9.25437C61.4515 9.4705 61.8748 9.763 62.1815 10.1237L61.4848 10.8095C60.9498 10.1936 60.2215 9.88975 59.2898 9.88975C58.4498 9.88975 57.7215 10.1757 57.1031 10.7526C56.4915 11.3311 56.1848 12.0802 56.1848 13C56.1848 13.9197 56.4915 14.6754 57.1031 15.2539C57.7215 15.8242 58.4498 16.1167 59.2898 16.1167C60.1815 16.1167 60.9315 15.8242 61.5231 15.2474C61.9131 14.8655 62.1348 14.339 62.1931 13.6662H59.2898V12.727H63.1631C63.2098 12.9301 63.2231 13.1267 63.2231 13.3169V13.3169Z" fill="white" stroke="white" stroke-width="0.16" stroke-miterlimit="10"/>
<path d="M69.368 10.0604H65.7297V12.5304H69.0097V13.4696H65.7297V15.9396H69.368V16.8968H64.6997V9.10327H69.368V10.0604Z" fill="white" stroke="white" stroke-width="0.16" stroke-miterlimit="10"/>
<path d="M73.7048 16.8968H72.6748V10.0604H70.4431V9.10327H75.9381V10.0604H73.7048V16.8968V16.8968Z" fill="white" stroke="white" stroke-width="0.16" stroke-miterlimit="10"/>
<path d="M79.9148 16.8968V9.10327H80.9431V16.8968H79.9148Z" fill="white" stroke="white" stroke-width="0.16" stroke-miterlimit="10"/>
<path d="M85.5014 16.8968H84.4797V10.0604H82.2397V9.10327H87.7414V10.0604H85.5014V16.8968Z" fill="white" stroke="white" stroke-width="0.16" stroke-miterlimit="10"/>
<path d="M98.1449 15.8941C97.3565 16.6822 96.3799 17.0755 95.2149 17.0755C94.0432 17.0755 93.0665 16.6822 92.2782 15.8941C91.4915 15.1076 91.0999 14.1424 91.0999 13C91.0999 11.8576 91.4915 10.8924 92.2782 10.1059C93.0665 9.31775 94.0432 8.9245 95.2149 8.9245C96.3732 8.9245 97.3499 9.31775 98.1382 10.1124C98.9315 10.9054 99.3232 11.8641 99.3232 13C99.3232 14.1424 98.9315 15.1076 98.1449 15.8941ZM93.0399 15.2409C93.6332 15.8242 94.3549 16.1167 95.2149 16.1167C96.0682 16.1167 96.7965 15.8242 97.3832 15.2409C97.9749 14.6575 98.2749 13.9084 98.2749 13C98.2749 12.0916 97.9749 11.3425 97.3832 10.7591C96.7965 10.1758 96.0682 9.88325 95.2149 9.88325C94.3549 9.88325 93.6332 10.1758 93.0399 10.7591C92.4482 11.3425 92.1482 12.0916 92.1482 13C92.1482 13.9084 92.4482 14.6575 93.0399 15.2409V15.2409Z" fill="white" stroke="white" stroke-width="0.16" stroke-miterlimit="10"/>
<path d="M100.768 16.8968V9.10327H102.018L105.905 15.1645H105.95L105.905 13.6663V9.10327H106.933V16.8968H105.86L101.79 10.5365H101.745L101.79 12.0413V16.8968H100.768V16.8968Z" fill="white" stroke="white" stroke-width="0.16" stroke-miterlimit="10"/>
<path d="M90.8464 28.2783C87.7147 28.2783 85.1564 30.602 85.1564 33.8082C85.1564 36.9883 87.7147 39.3364 90.8464 39.3364C93.9847 39.3364 96.543 36.9883 96.543 33.8082C96.543 30.602 93.9847 28.2783 90.8464 28.2783ZM90.8464 37.1589C89.128 37.1589 87.6497 35.776 87.6497 33.8082C87.6497 31.8143 89.128 30.4558 90.8464 30.4558C92.5647 30.4558 94.0497 31.8143 94.0497 33.8082C94.0497 35.776 92.5647 37.1589 90.8464 37.1589V37.1589ZM78.4314 28.2783C75.293 28.2783 72.7414 30.602 72.7414 33.8082C72.7414 36.9883 75.293 39.3364 78.4314 39.3364C81.568 39.3364 84.1214 36.9883 84.1214 33.8082C84.1214 30.602 81.568 28.2783 78.4314 28.2783ZM78.4314 37.1589C76.7114 37.1589 75.2281 35.776 75.2281 33.8082C75.2281 31.8143 76.7114 30.4558 78.4314 30.4558C80.1497 30.4558 81.6281 31.8143 81.6281 33.8082C81.6281 35.776 80.1497 37.1589 78.4314 37.1589ZM63.6581 29.9732V32.3229H69.4131C69.2447 33.6359 68.7947 34.6012 68.1047 35.2739C67.2647 36.0864 65.9564 36.9883 63.6581 36.9883C60.1164 36.9883 57.3431 34.2014 57.3431 30.7483C57.3431 27.2952 60.1164 24.5083 63.6581 24.5083C65.5731 24.5083 66.9664 25.2379 67.9947 26.1837L69.6931 24.5278C68.2547 23.1888 66.3414 22.1602 63.6581 22.1602C58.8014 22.1602 54.7197 26.013 54.7197 30.7483C54.7197 35.4835 58.8014 39.3364 63.6581 39.3364C66.2831 39.3364 68.2547 38.4979 69.8047 36.9249C71.3931 35.3763 71.8881 33.1988 71.8881 31.4405C71.8881 30.8945 71.8414 30.3924 71.7581 29.9732H63.6581ZM124.068 31.7948C123.6 30.5582 122.155 28.2783 119.211 28.2783C116.295 28.2783 113.866 30.5192 113.866 33.8082C113.866 36.9054 116.27 39.3364 119.491 39.3364C122.096 39.3364 123.6 37.7878 124.218 36.8859L122.285 35.6298C121.64 36.5495 120.761 37.1589 119.491 37.1589C118.23 37.1589 117.325 36.595 116.745 35.4835L124.33 32.4237L124.068 31.7948V31.7948ZM116.335 33.6359C116.27 31.5039 118.033 30.4119 119.296 30.4119C120.286 30.4119 121.126 30.8945 121.406 31.5852L116.335 33.6359V33.6359ZM110.17 39H112.663V22.75H110.17V39ZM106.086 29.51H106.003C105.443 28.8633 104.375 28.2783 103.021 28.2783C100.181 28.2783 97.5847 30.7093 97.5847 33.826C97.5847 36.9249 100.181 39.3364 103.021 39.3364C104.375 39.3364 105.443 38.7465 106.003 38.0803H106.086V38.8733C106.086 40.9874 104.928 42.1233 103.06 42.1233C101.536 42.1233 100.591 41.0508 100.201 40.1489L98.033 41.0313C98.658 42.497 100.313 44.3008 103.06 44.3008C105.983 44.3008 108.45 42.6238 108.45 38.5434V28.6147H106.086V29.51V29.51ZM103.235 37.1589C101.516 37.1589 100.078 35.7565 100.078 33.826C100.078 31.8777 101.516 30.4558 103.235 30.4558C104.928 30.4558 106.263 31.8777 106.263 33.826C106.263 35.7565 104.928 37.1589 103.235 37.1589V37.1589ZM135.741 22.75H129.778V39H132.265V32.8429H135.741C138.503 32.8429 141.211 30.8945 141.211 27.7957C141.211 24.6984 138.496 22.75 135.741 22.75V22.75ZM135.806 30.5825H132.265V25.0104H135.806C137.663 25.0104 138.723 26.5135 138.723 27.7957C138.723 29.0534 137.663 30.5825 135.806 30.5825ZM151.178 28.2474C149.381 28.2474 147.513 29.0209 146.745 30.7353L148.951 31.6372C149.426 30.7353 150.3 30.4428 151.223 30.4428C152.513 30.4428 153.821 31.1984 153.841 32.5325V32.7032C153.391 32.4497 152.428 32.0743 151.243 32.0743C148.866 32.0743 146.445 33.3499 146.445 35.7305C146.445 37.908 148.391 39.3104 150.58 39.3104C152.253 39.3104 153.176 38.5743 153.756 37.7179H153.841V38.974H156.243V32.7405C156.243 29.8594 154.036 28.2474 151.178 28.2474ZM150.878 37.1524C150.065 37.1524 148.931 36.7592 148.931 35.776C148.931 34.5183 150.345 34.0357 151.568 34.0357C152.663 34.0357 153.176 34.2713 153.841 34.5817C153.646 36.0864 152.318 37.1524 150.878 37.1524V37.1524ZM164.993 28.6033L162.135 35.6477H162.05L159.095 28.6033H156.413L160.853 38.4475L158.32 43.9254H160.918L167.76 28.6033H164.993V28.6033ZM142.578 39H145.071V22.75H142.578V39Z" fill="white"/>
<rect x="0.75" y="0.75" width="178.5" height="50.5" rx="5.25" stroke="#A6A6A6" stroke-width="1.5"/>
</svg>
