<svg width="180" height="52" viewBox="0 0 180 52" fill="none" xmlns="http://www.w3.org/2000/svg">
<rect x="0.75" y="0.75" width="178.5" height="50.5" rx="5.25" fill="black"/>
<path d="M63.432 18.14C62.508 18.14 61.6773 17.9253 60.94 17.496C60.2027 17.0573 59.624 16.4507 59.204 15.676C58.7933 14.9013 58.588 14.0287 58.588 13.058C58.588 12.0873 58.7933 11.2193 59.204 10.454C59.624 9.67933 60.198 9.07733 60.926 8.648C61.6633 8.20933 62.494 7.99 63.418 7.99C64.4167 7.99 65.3033 8.242 66.078 8.746C66.862 9.24067 67.422 9.91267 67.758 10.762L66.33 10.986C66.0687 10.4633 65.6813 10.0573 65.168 9.768C64.664 9.46933 64.0947 9.32 63.46 9.32C62.8067 9.32 62.2233 9.47867 61.71 9.796C61.206 10.1133 60.8093 10.5567 60.52 11.126C60.24 11.686 60.1 12.33 60.1 13.058C60.1 13.7953 60.24 14.4487 60.52 15.018C60.8093 15.578 61.2107 16.0167 61.724 16.334C62.2373 16.6513 62.8253 16.81 63.488 16.81C64.1413 16.81 64.72 16.6607 65.224 16.362C65.7373 16.054 66.1293 15.6247 66.4 15.074L67.828 15.298C67.4733 16.166 66.8993 16.8567 66.106 17.37C65.3127 17.8833 64.4213 18.14 63.432 18.14ZM75.4232 18H73.6172L70.9432 15.004H70.5092V18H69.1372V10.762H70.5092V13.688H70.9292L73.4912 10.762H75.1432L72.0352 14.262L75.4232 18ZM78.9659 10.622C79.8619 10.622 80.5665 10.916 81.0799 11.504C81.6025 12.0827 81.8639 12.8947 81.8639 13.94V18H80.8839L80.5619 16.866C80.3285 17.23 80.0159 17.5333 79.6239 17.776C79.2319 18.0187 78.7605 18.14 78.2099 18.14C77.7245 18.14 77.2905 18.042 76.9079 17.846C76.5252 17.65 76.2265 17.3793 76.0119 17.034C75.7972 16.6793 75.6899 16.2827 75.6899 15.844C75.6899 15.1627 75.9605 14.6167 76.5019 14.206C77.0432 13.7953 77.8272 13.59 78.8539 13.59H80.4919C80.4545 13.0207 80.2959 12.582 80.0159 12.274C79.7359 11.9567 79.3625 11.798 78.8959 11.798C78.5412 11.798 78.2285 11.882 77.9579 12.05C77.6872 12.218 77.4819 12.4373 77.3419 12.708L76.0679 12.498C76.2545 11.9193 76.6139 11.462 77.1459 11.126C77.6779 10.79 78.2845 10.622 78.9659 10.622ZM78.5039 16.978C79.0919 16.978 79.5679 16.7867 79.9319 16.404C80.3052 16.012 80.4919 15.4753 80.4919 14.794V14.71H78.8959C77.6825 14.71 77.0759 15.074 77.0759 15.802C77.0759 16.1567 77.2065 16.4413 77.4679 16.656C77.7292 16.8707 78.0745 16.978 78.5039 16.978ZM87.5204 15.368C87.2964 15.4707 87.0304 15.55 86.7224 15.606C86.4144 15.662 86.1111 15.69 85.8124 15.69C84.9444 15.69 84.2771 15.4473 83.8104 14.962C83.3438 14.4767 83.1104 13.7907 83.1104 12.904V10.762H84.4824V12.904C84.4824 13.94 84.9818 14.458 85.9804 14.458C86.5871 14.458 87.1004 14.3507 87.5204 14.136V10.762H88.8924V18H87.5204V15.368ZM93.6358 10.622C94.5318 10.622 95.2365 10.916 95.7498 11.504C96.2725 12.0827 96.5338 12.8947 96.5338 13.94V18H95.5538L95.2318 16.866C94.9985 17.23 94.6858 17.5333 94.2938 17.776C93.9018 18.0187 93.4305 18.14 92.8798 18.14C92.3945 18.14 91.9605 18.042 91.5778 17.846C91.1951 17.65 90.8965 17.3793 90.6818 17.034C90.4671 16.6793 90.3598 16.2827 90.3598 15.844C90.3598 15.1627 90.6305 14.6167 91.1718 14.206C91.7131 13.7953 92.4971 13.59 93.5238 13.59H95.1618C95.1245 13.0207 94.9658 12.582 94.6858 12.274C94.4058 11.9567 94.0325 11.798 93.5658 11.798C93.2111 11.798 92.8985 11.882 92.6278 12.05C92.3571 12.218 92.1518 12.4373 92.0118 12.708L90.7378 12.498C90.9245 11.9193 91.2838 11.462 91.8158 11.126C92.3478 10.79 92.9545 10.622 93.6358 10.622ZM93.1738 16.978C93.7618 16.978 94.2378 16.7867 94.6018 16.404C94.9751 16.012 95.1618 15.4753 95.1618 14.794V14.71H93.5658C92.3525 14.71 91.7458 15.074 91.7458 15.802C91.7458 16.1567 91.8765 16.4413 92.1378 16.656C92.3991 16.8707 92.7445 16.978 93.1738 16.978ZM101.245 18H99.8729V12.022H97.3669V10.762H103.751V12.022H101.245V18ZM104.944 18V10.762H106.316V12.89H107.73C108.29 12.89 108.789 12.9973 109.228 13.212C109.667 13.4267 110.007 13.73 110.25 14.122C110.502 14.5047 110.628 14.9433 110.628 15.438C110.628 15.9327 110.502 16.376 110.25 16.768C110.007 17.1507 109.667 17.454 109.228 17.678C108.789 17.8927 108.29 18 107.73 18H104.944ZM107.73 16.796C108.178 16.796 108.542 16.67 108.822 16.418C109.111 16.166 109.256 15.8393 109.256 15.438C109.256 15.046 109.111 14.724 108.822 14.472C108.542 14.22 108.178 14.094 107.73 14.094H106.316V16.796H107.73ZM120.109 14.206C120.482 14.346 120.781 14.5747 121.005 14.892C121.238 15.2 121.355 15.564 121.355 15.984C121.355 16.3667 121.243 16.712 121.019 17.02C120.804 17.328 120.501 17.5707 120.109 17.748C119.717 17.916 119.269 18 118.765 18H115.307V10.762H118.639C119.115 10.762 119.54 10.846 119.913 11.014C120.286 11.182 120.576 11.4107 120.781 11.7C120.996 11.9893 121.103 12.3207 121.103 12.694C121.103 13.0487 121.014 13.3567 120.837 13.618C120.669 13.87 120.426 14.066 120.109 14.206ZM116.679 11.924V13.702H118.639C118.956 13.702 119.218 13.6227 119.423 13.464C119.628 13.296 119.731 13.0813 119.731 12.82C119.731 12.5587 119.628 12.344 119.423 12.176C119.218 12.008 118.956 11.924 118.639 11.924H116.679ZM118.765 16.838C119.129 16.838 119.423 16.7447 119.647 16.558C119.871 16.3713 119.983 16.1287 119.983 15.83C119.983 15.5313 119.871 15.2887 119.647 15.102C119.423 14.9153 119.129 14.822 118.765 14.822H116.679V16.838H118.765Z" fill="white"/>
<path fill-rule="evenodd" clip-rule="evenodd" d="M30.6128 14.5827L24.3819 12.9907C22.8204 12.5916 21.3064 13.7936 21.3064 15.4324V18.4961L15.0755 16.904C13.5138 16.505 12 17.7069 12 19.3457V36.3439C12 37.7868 12.964 39.0448 14.3389 39.3961L24.2282 41.923C25.7899 42.322 27.3037 41.1201 27.3037 39.4813V36.4175L28.9267 36.8322L27.3037 36.4116V24.7034L27.3041 22.5082L27.304 22.4791L27.3033 22.4336C27.2886 21.4587 26.8344 20.5731 26.1121 20.0002L26.0968 19.9881C26.0856 19.9792 26.0758 19.969 26.0678 19.9577C26.0313 19.9073 26.0264 19.8369 26.0624 19.7834C26.1057 19.7191 26.1839 19.6886 26.2571 19.7112C27.56 20.1136 28.8068 21.4801 28.9312 23.1982L29.3615 36.1796C29.3756 36.6065 29.6456 36.9765 30.0342 37.1153L33.5346 38.0097C35.0963 38.4086 36.6101 37.2068 36.6101 35.5679L36.6103 32.5036L36.6128 18.596C36.6128 18.4833 36.6073 18.3742 36.5971 18.2689C36.5747 18.0394 36.5297 17.8275 36.4694 17.6331C36.2283 16.8565 35.742 16.3593 35.4754 16.1332C35.4499 16.1116 35.4264 16.0925 35.4055 16.0759C35.344 16.0272 35.327 15.9366 35.3711 15.8712C35.4144 15.8069 35.4925 15.7764 35.5657 15.799C36.8686 16.2014 38.1155 17.5678 38.2399 19.286L38.6703 32.2665C38.6851 32.7156 38.9847 33.1013 39.4072 33.2186L42.841 34.096C44.4027 34.495 45.9167 33.2931 45.9167 31.6542V14.656C45.9167 13.2132 44.9526 11.9551 43.5777 11.6039L33.6883 9.07702C32.1268 8.67799 30.6128 9.87985 30.6128 11.5187V14.5827Z" fill="white"/>
<path d="M66.414 35.0979C69.0433 34.4276 70.7711 32.4166 70.7711 29.7848C70.7711 26.5324 68.1666 24.2483 64.5106 24.2483H58V41.7517H61.005V35.3214H63.1336L67.791 41.7517H71.3219L66.414 35.0979ZM64.5106 26.9793C66.3887 26.9793 67.6912 28.1214 67.6912 29.7848C67.6912 31.4483 66.3887 32.5904 64.5106 32.5904H61.005V26.9793H64.5106Z" fill="white"/>
<path d="M78.0852 42.0001C79.6627 42.0001 81.1151 41.1807 81.9417 39.8152L82.5173 41.7518H84.6712V28.8414H81.7913V36.3146C81.7913 38.1518 80.5642 39.4428 78.8866 39.4428C77.2338 39.4428 76.0816 38.1518 76.0816 36.3146V28.8414H73.2021V36.6373C73.2021 39.7408 75.3055 42.0001 78.0852 42.0001Z" fill="white"/>
<path d="M93.8611 42C97.1916 42 99.9464 40.1131 99.9464 36.9848C99.9464 33.4841 97.0665 32.4662 94.5875 31.6221C92.6593 30.9766 90.9816 30.3807 90.9816 28.8166C90.9816 27.451 92.2584 26.731 93.7609 26.731C95.3387 26.731 96.4656 27.5503 97.0918 28.9407L99.9464 28.469C99.0448 25.7379 96.7658 24 93.6611 24C90.4556 24 87.9013 25.8372 87.9013 28.9655C87.9013 32.4911 90.7812 33.4593 93.2602 34.2786C95.1635 34.8993 96.8661 35.4952 96.8661 37.0841C96.8661 38.4745 95.5893 39.269 93.8863 39.269C91.9329 39.269 90.8814 38.3504 89.9549 36.6869L87.0498 37.1834C87.9013 40.1379 90.606 42 93.8611 42Z" fill="white"/>
<path d="M107.78 39.2689C106.804 39.2689 106.328 38.7972 106.328 37.8289V31.3241H110.209V28.8413H106.328V25.1172H104.174L103.448 28.8413H101.32V31.3241H103.448V37.8289C103.448 40.3613 104.926 41.7517 107.78 41.7517H110.209L110.46 39.2689H107.78Z" fill="white"/>
<path d="M118.689 42C122.771 42 125.65 39.2194 125.65 35.2966C125.65 31.3738 122.771 28.5931 118.689 28.5931C114.607 28.5931 111.728 31.3738 111.728 35.2966C111.728 39.2194 114.607 42 118.689 42ZM118.689 39.3931C116.335 39.3931 114.733 37.7297 114.733 35.2966C114.733 32.8635 116.335 31.2 118.689 31.2C121.043 31.2 122.645 32.8635 122.645 35.2966C122.645 37.7297 121.043 39.3931 118.689 39.3931Z" fill="white"/>
<path d="M131.034 41.7518V34.1297C131.034 32.4911 131.835 31.5725 133.588 31.5725H135.241L134.99 28.8414H134.44C132.912 28.8414 131.735 29.2635 130.859 30.7035L130.308 28.8414H128.154V41.7518H131.034Z" fill="white"/>
<path d="M149.411 35.1476C149.411 31.4235 146.606 28.5931 142.65 28.5931C138.693 28.5931 135.888 31.3987 135.888 35.2966C135.888 39.1945 138.693 42 142.65 42C145.354 42 147.908 40.7338 148.885 38.2759L146.181 37.829C145.555 38.7476 144.353 39.3931 142.825 39.3931C140.622 39.3931 139.169 38.0524 138.893 36.0662H149.361C149.386 35.7931 149.411 35.4952 149.411 35.1476ZM142.65 31.0759C144.453 31.0759 145.805 32.218 146.281 33.8318H139.069C139.545 32.1683 140.897 31.0759 142.65 31.0759Z" fill="white"/>
<rect x="0.75" y="0.75" width="178.5" height="50.5" rx="5.25" stroke="#A6A6A6" stroke-width="1.5"/>
</svg>
