<svg width="133" height="48" viewBox="0 0 133 48" fill="none" xmlns="http://www.w3.org/2000/svg">
<!-- <path d="M0.692308 0.692308H132.231V47.3077H0.692308V0.692308ZM0 48H132.923V0H0V48Z" fill="#D2D2D2"/> -->
<path d="M23.7385 10.5541H10.8462V23.4464H23.7385V10.5541Z" fill="#F25022"/>
<path d="M37.9692 10.5541H25.0769V23.4464H37.9692V10.5541Z" fill="#7FBA00"/>
<path d="M23.7385 24.7695H10.8462V37.6618H23.7385V24.7695Z" fill="#00A4EF"/>
<path d="M37.9692 24.7695H25.0769V37.6618H37.9692V24.7695Z" fill="#FFB900"/>
<path d="M62.8155 25.0771C62.8155 24.6925 62.954 24.3848 63.2309 24.1233C63.5078 23.8617 63.8309 23.7386 64.2155 23.7386C64.6155 23.7386 64.954 23.8771 65.2155 24.1386C65.477 24.4002 65.6155 24.7233 65.6155 25.0771C65.6155 25.4463 65.477 25.7694 65.2001 26.0156C64.9232 26.2771 64.6001 26.4002 64.2001 26.4002C63.8001 26.4002 63.477 26.2771 63.2001 26.0156C62.954 25.754 62.8155 25.4463 62.8155 25.0771ZM65.354 37.6617H63.0616V27.8925H65.354V37.6617Z" fill="black"/>
<path d="M72.3385 35.9848C72.6769 35.9848 73.0615 35.9079 73.4769 35.7541C73.8923 35.6002 74.2615 35.3848 74.6154 35.1233V37.2617C74.2461 37.4771 73.8308 37.631 73.3692 37.7387C72.9077 37.8464 72.3846 37.9079 71.8308 37.9079C70.4 37.9079 69.2308 37.4464 68.3231 36.5387C67.4154 35.631 66.9692 34.4617 66.9692 33.0617C66.9692 31.4925 67.4308 30.2002 68.3539 29.1848C69.2769 28.1694 70.5692 27.6617 72.2615 27.6617C72.6923 27.6617 73.1231 27.7233 73.5692 27.831C74.0154 27.9387 74.3538 28.0771 74.6154 28.2156V30.4156C74.2615 30.1541 73.8923 29.9541 73.5231 29.8156C73.1538 29.6771 72.7692 29.6002 72.3846 29.6002C71.4769 29.6002 70.7539 29.8925 70.1846 30.4771C69.6308 31.0617 69.3538 31.8617 69.3538 32.8617C69.3538 33.8464 69.6154 34.6156 70.1538 35.1694C70.6923 35.7233 71.4154 35.9848 72.3385 35.9848Z" fill="black"/>
<path d="M81.154 27.7388C81.3386 27.7388 81.5078 27.7542 81.6463 27.7695C81.7847 27.8003 81.9232 27.8311 82.0155 27.8618V30.1849C81.8924 30.0926 81.7232 30.0157 81.4924 29.9388C81.2617 29.8618 80.9847 29.8157 80.6463 29.8157C80.077 29.8157 79.6001 30.0465 79.2155 30.5234C78.8309 31.0003 78.6309 31.7234 78.6309 32.7234V37.6618H76.3386V27.8926H78.6309V29.4311H78.6616C78.877 28.8926 79.1847 28.4772 79.6155 28.1849C80.0463 27.8926 80.554 27.7388 81.154 27.7388Z" fill="black"/>
<path d="M82.1385 32.9233C82.1385 31.3079 82.6001 30.031 83.5078 29.0771C84.4155 28.1387 85.6924 27.6617 87.3078 27.6617C88.8309 27.6617 90.0309 28.1233 90.8924 29.031C91.7539 29.9387 92.1847 31.1694 92.1847 32.7079C92.1847 34.2925 91.7232 35.5541 90.8155 36.4925C89.9078 37.431 88.6616 37.8925 87.0924 37.8925C85.5847 37.8925 84.3693 37.4464 83.4924 36.5541C82.5847 35.6771 82.1385 34.4617 82.1385 32.9233ZM84.5385 32.8464C84.5385 33.8617 84.7693 34.6464 85.2309 35.1848C85.6924 35.7233 86.3539 35.9848 87.2155 35.9848C88.0462 35.9848 88.6924 35.7233 89.1232 35.1848C89.5539 34.6464 89.7847 33.8464 89.7847 32.7848C89.7847 31.7387 89.5539 30.9387 89.1078 30.4002C88.6616 29.8617 88.0155 29.6002 87.2001 29.6002C86.3539 29.6002 85.7078 29.8771 85.2309 30.4464C84.7693 31.0156 84.5385 31.8002 84.5385 32.8464Z" fill="black"/>
<path d="M95.6001 30.4617C95.6001 30.7848 95.7077 31.0464 95.9077 31.231C96.1231 31.4156 96.5847 31.6464 97.2924 31.9387C98.2154 32.3079 98.8616 32.7233 99.2308 33.1848C99.6 33.6464 99.7847 34.2002 99.7847 34.8464C99.7847 35.7694 99.4308 36.5079 98.7231 37.0618C98.0154 37.6156 97.0616 37.8925 95.8616 37.8925C95.4616 37.8925 95.0154 37.8464 94.5231 37.7387C94.0308 37.6464 93.6154 37.5079 93.277 37.3694V35.1079C93.6924 35.4002 94.1385 35.631 94.6308 35.8002C95.1077 35.9694 95.5539 36.0618 95.9385 36.0618C96.4616 36.0618 96.8462 35.9848 97.0924 35.8464C97.3385 35.7079 97.4616 35.4618 97.4616 35.1079C97.4616 34.7848 97.3385 34.5233 97.077 34.3079C96.8154 34.0925 96.3385 33.831 95.6154 33.5541C94.7693 33.2002 94.1693 32.8002 93.8154 32.3541C93.4616 31.9079 93.277 31.3387 93.277 30.6618C93.277 29.7848 93.6308 29.0617 94.3231 28.4925C95.0154 27.9233 95.9231 27.6464 97.0462 27.6464C97.3847 27.6464 97.7693 27.6771 98.2 27.7541C98.6308 27.831 98.9847 27.9233 99.2616 28.0464V30.231C98.9539 30.031 98.6 29.8617 98.2 29.7079C97.8 29.5694 97.3847 29.4925 97 29.4925C96.5693 29.4925 96.2154 29.5848 95.9847 29.7541C95.7231 29.9233 95.6001 30.1694 95.6001 30.4617Z" fill="black"/>
<path d="M100.8 32.9233C100.8 31.3079 101.262 30.031 102.169 29.0771C103.077 28.1387 104.354 27.6617 105.969 27.6617C107.492 27.6617 108.692 28.1233 109.554 29.031C110.415 29.9387 110.846 31.1694 110.846 32.7079C110.846 34.2925 110.385 35.5541 109.477 36.4925C108.569 37.431 107.323 37.8925 105.754 37.8925C104.246 37.8925 103.031 37.4464 102.154 36.5541C101.246 35.6771 100.8 34.4617 100.8 32.9233ZM103.185 32.8464C103.185 33.8617 103.415 34.6464 103.877 35.1848C104.339 35.7233 105 35.9848 105.862 35.9848C106.692 35.9848 107.339 35.7233 107.769 35.1848C108.2 34.6464 108.431 33.8464 108.431 32.7848C108.431 31.7387 108.2 30.9387 107.754 30.4002C107.308 29.8617 106.662 29.6002 105.846 29.6002C105 29.6002 104.354 29.8771 103.877 30.4464C103.415 31.0156 103.185 31.8002 103.185 32.8464Z" fill="black"/>
<path d="M118.431 29.7848V34.8002C118.431 35.8464 118.677 36.6156 119.154 37.1387C119.631 37.6618 120.369 37.9079 121.339 37.9079C121.662 37.9079 122 37.8772 122.339 37.8002C122.677 37.7233 122.923 37.6618 123.062 37.5695V35.6618C122.923 35.7541 122.754 35.831 122.569 35.8925C122.385 35.9541 122.215 35.9848 122.092 35.9848C121.631 35.9848 121.277 35.8618 121.062 35.6156C120.846 35.3695 120.739 34.9387 120.739 34.3387V29.7695H123.077V27.8925H120.754V25.0002L118.446 25.7079V27.9079H115.015V26.7233C115.015 26.1387 115.139 25.6925 115.4 25.3848C115.662 25.0772 116.031 24.9387 116.508 24.9387C116.754 24.9387 116.969 24.9695 117.169 25.031C117.354 25.0925 117.492 25.1541 117.569 25.2002V23.2156C117.4 23.1541 117.215 23.1233 117 23.0925C116.785 23.0618 116.539 23.0464 116.262 23.0464C115.215 23.0464 114.354 23.3695 113.692 24.031C113.031 24.6925 112.692 25.5233 112.692 26.5541V27.9079H111.062V29.7848H112.692V37.6772H115.015V29.7848H118.431Z" fill="black"/>
<path d="M60.8461 24.031V37.6618H58.4769V26.9849H58.4461L54.2154 37.6618H52.6461L48.3077 26.9849H48.2769V37.6618H46.0923V24.031H49.4769L53.4 34.1387H53.4615L57.6 24.031H60.8461Z" fill="black"/>
<path d="M52.3077 18.1387C51.4924 18.6003 50.5693 18.831 49.5385 18.831C48.7539 18.831 48.0616 18.6618 47.4462 18.308C46.8462 17.9695 46.3693 17.4772 46.0462 16.8464C45.7231 16.2157 45.5539 15.508 45.5539 14.7233C45.5539 13.8926 45.7385 13.1387 46.0924 12.4926C46.4462 11.8464 46.9539 11.3233 47.6154 10.9541C48.277 10.5849 49.0154 10.4003 49.8462 10.4003C50.2616 10.4003 50.677 10.4464 51.0924 10.5233C51.5077 10.6003 51.8462 10.708 52.1077 10.831V12.0618C51.4924 11.6464 50.7077 11.4464 49.7539 11.4464C49.1847 11.4464 48.677 11.5849 48.2154 11.8618C47.7539 12.1387 47.4 12.5233 47.1539 13.0003C46.9077 13.4926 46.7847 14.0464 46.7847 14.6618C46.7847 15.631 47.0462 16.4003 47.5539 16.9695C48.0616 17.5387 48.7693 17.8157 49.6616 17.8157C50.2308 17.8157 50.7385 17.708 51.1693 17.4772V15.3695H49.4308V14.3541H52.3077V18.1387Z" fill="black"/>
<path d="M58.9386 16.0926H54.9078C54.9232 16.6772 55.1078 17.1234 55.4155 17.4465C55.7386 17.7541 56.154 17.9234 56.677 17.9234C57.3694 17.9234 57.9694 17.7234 58.4924 17.3234V18.308C58.2617 18.4618 57.9694 18.6003 57.6155 18.6926C57.2617 18.7849 56.8924 18.8311 56.5232 18.8311C55.6463 18.8311 54.954 18.5695 54.477 18.0465C54.0001 17.5234 53.754 16.7849 53.754 15.8311C53.754 15.2465 53.877 14.708 54.1078 14.2465C54.3386 13.7695 54.677 13.4003 55.0924 13.1388C55.5078 12.8772 55.9847 12.7388 56.4924 12.7388C57.2463 12.7388 57.8463 12.9849 58.277 13.4772C58.7078 13.9695 58.9232 14.6465 58.9232 15.5234V16.0926H58.9386ZM57.8155 15.2157C57.8155 14.708 57.6924 14.3234 57.4617 14.0618C57.2309 13.8003 56.9078 13.6618 56.477 13.6618C56.0924 13.6618 55.754 13.8003 55.4617 14.0772C55.1694 14.3542 55.0001 14.7388 54.9078 15.2157H57.8155Z" fill="black"/>
<path d="M63.3078 18.631C63.2001 18.6925 63.0617 18.7387 62.8617 18.7694C62.677 18.8002 62.5078 18.8156 62.354 18.8156C61.277 18.8156 60.7386 18.2156 60.7386 17.031V13.8002H59.754V12.8771H60.7386V11.4925L61.8617 11.1387V12.8617H63.2924V13.7848H61.8617V16.831C61.8617 17.2156 61.9232 17.4925 62.0463 17.6464C62.1693 17.8002 62.3847 17.8771 62.7078 17.8771C62.9232 17.8771 63.1232 17.8156 63.2924 17.6925V18.631H63.3078Z" fill="black"/>
<path d="M68.8769 10.8156C68.8769 11.0002 68.8154 11.1541 68.6769 11.2925C68.5384 11.431 68.3692 11.4925 68.1692 11.4925C67.9692 11.4925 67.8 11.431 67.6615 11.2925C67.5231 11.1694 67.4615 11.0002 67.4615 10.8002C67.4615 10.6002 67.5385 10.431 67.6769 10.3079C67.8154 10.1848 67.9846 10.1079 68.1692 10.1079C68.3538 10.1079 68.5231 10.1694 68.6615 10.3079C68.8154 10.4618 68.8769 10.6156 68.8769 10.8156ZM68.7231 18.6925H67.6V12.8771H68.7231V18.6925Z" fill="black"/>
<path d="M73.6 18.631C73.4923 18.6925 73.3538 18.7387 73.1538 18.7694C72.9692 18.8002 72.8 18.8156 72.6461 18.8156C71.5692 18.8156 71.0308 18.2156 71.0308 17.031V13.8002H70.0461V12.8771H71.0308V11.4925L72.1538 11.1387V12.8617H73.5846V13.7848H72.1538V16.831C72.1538 17.2156 72.2154 17.4925 72.3384 17.6464C72.4615 17.8002 72.6769 17.8771 73 17.8771C73.2153 17.8771 73.4153 17.8156 73.5846 17.6925V18.631H73.6Z" fill="black"/>
<path d="M80.9538 11.031C80.7692 10.9387 80.5692 10.8772 80.3384 10.8772C79.7077 10.8772 79.4 11.2618 79.4 12.031V12.8618H80.7231V13.7849H79.4V18.6772H78.2769V13.8003H77.2923V12.8772H78.2769V11.9849C78.2769 11.3695 78.4461 10.8772 78.8 10.5079C79.1538 10.1387 79.6307 9.9541 80.2461 9.9541C80.5538 9.9541 80.7846 9.98487 80.9692 10.0618V11.031H80.9538Z" fill="black"/>
<path d="M85.0923 14.0003C85.0307 13.9541 84.9077 13.908 84.7538 13.8618C84.6 13.8311 84.4615 13.8003 84.3538 13.8003C83.9538 13.8003 83.6307 13.9849 83.3846 14.3388C83.1384 14.6926 83.0153 15.1541 83.0153 15.7234V18.6926H81.8923V12.8772H83.0153V14.0465H83.0461C83.1692 13.6465 83.3692 13.3388 83.6307 13.108C83.8923 12.8772 84.2 12.7695 84.5384 12.7695C84.7692 12.7695 84.9538 12.8003 85.0769 12.8465V14.0003H85.0923Z" fill="black"/>
<path d="M91.5077 15.7542C91.5077 16.6926 91.2308 17.4465 90.6923 18.0003C90.1539 18.5541 89.4308 18.8311 88.5385 18.8311C87.6616 18.8311 86.9539 18.5541 86.4308 18.0157C85.9077 17.4772 85.6462 16.7542 85.6462 15.8465C85.6462 14.8772 85.9231 14.1234 86.4616 13.5695C87 13.0157 87.7385 12.7388 88.677 12.7388C89.5539 12.7388 90.2462 13.0003 90.7385 13.5388C91.2616 14.0772 91.5077 14.8157 91.5077 15.7542ZM90.3539 15.7849C90.3539 15.0926 90.2 14.5695 89.9077 14.2157C89.6 13.8618 89.1846 13.6772 88.6308 13.6772C88.0769 13.6772 87.6308 13.8618 87.3077 14.2465C86.9846 14.6157 86.8308 15.1542 86.8308 15.8311C86.8308 16.4926 86.9846 17.0003 87.3077 17.3695C87.6308 17.7388 88.0616 17.9234 88.6308 17.9234C89.2 17.9234 89.6308 17.7388 89.9231 17.3849C90.2 17.0003 90.3539 16.4772 90.3539 15.7849Z" fill="black"/>
<path d="M101.554 18.6926H100.431V15.3849C100.431 14.7849 100.338 14.3542 100.154 14.0772C99.9693 13.8003 99.6462 13.6772 99.2 13.6772C98.8308 13.6772 98.5077 13.8465 98.2616 14.1849C98 14.5234 97.877 14.9388 97.877 15.4003V18.6926H96.7539V15.2772C96.7539 14.2157 96.3385 13.6772 95.5231 13.6772C95.1385 13.6772 94.8154 13.8465 94.5693 14.1695C94.3231 14.4926 94.2 14.908 94.2 15.4157V18.708H93.077V12.8772H94.2V13.7849H94.2154C94.6308 13.0772 95.2462 12.7388 96.0308 12.7388C96.4 12.7388 96.7385 12.8465 97.0462 13.0465C97.3385 13.2465 97.5539 13.5388 97.6923 13.908C97.9231 13.508 98.1847 13.2157 98.5077 13.0157C98.8308 12.8311 99.2 12.7234 99.6308 12.7234C100.908 12.7234 101.538 13.508 101.538 15.0926V18.6926H101.554Z" fill="black"/>
</svg>
