<svg width="64" height="64" viewBox="0 0 64 64" fill="none" xmlns="http://www.w3.org/2000/svg">
<g clip-path="url(#clip0)">
<path d="M44 27C44 24.7909 42.2091 23 40 23H38C35.7909 23 34 24.7909 34 27V59C34 61.2091 35.7909 63 38 63H40C42.2091 63 44 61.2091 44 59V27Z" fill="url(#paint0_linear)"/>
<path d="M34 57V59C34 61.2092 35.7909 63 38 63H40C42.2091 63 44 61.2092 44 59L44 57C38 56.9999 40 57 34 57Z" fill="#0461DF"/>
<ellipse rx="14.9998" ry="15" transform="matrix(-1 0 0 1 49.0015 26)" fill="url(#paint1_linear)"/>
<ellipse rx="3.5" ry="7" transform="matrix(-1 0 0 1 60.5001 25.9231)" fill="#0461DF"/>
<ellipse rx="1.99997" ry="2" transform="matrix(-1 0 0 1 48.753 22.5214)" fill="#0461DF"/>
<path d="M20.0013 27C20.0013 24.7909 21.7921 23 24.0013 23H26.0013C28.2104 23 30.0013 24.7909 30.0013 27V59C30.0013 61.2091 28.2104 63 26.0013 63H24.0013C21.7921 63 20.0013 61.2091 20.0013 59V27Z" fill="url(#paint2_linear)"/>
<path d="M30.0013 57V59C30.0013 61.2092 28.2104 63 26.0013 63H24.0013C21.7921 63 20.0013 61.2092 20.0013 59V57C26.0013 56.9999 24.0013 57 30.0013 57Z" fill="#0461DF"/>
<ellipse cx="14.9998" cy="26" rx="14.9998" ry="15" fill="url(#paint3_linear)"/>
<ellipse cx="3.50122" cy="25.9231" rx="3.5" ry="7" fill="#0461DF"/>
<ellipse cx="15.2483" cy="22.5214" rx="1.99997" ry="2" fill="#0461DF"/>
<path d="M55 44L55.3447 44.8989C56.3603 47.5472 58.4528 49.6397 61.1011 50.6553L62 51L61.1011 51.3447C58.4528 52.3603 56.3603 54.4528 55.3447 57.1011L55 58L54.6553 57.1011C53.6397 54.4528 51.5472 52.3603 48.8989 51.3447L48 51L48.8989 50.6553C51.5472 49.6397 53.6397 47.5472 54.6553 44.8989L55 44Z" fill="url(#paint4_linear)"/>
<path d="M32 2L32.0675 2.17605C33.0831 4.82441 35.1756 6.91689 37.8239 7.93249L38 8L37.8239 8.06751C35.1756 9.08311 33.0831 11.1756 32.0675 13.8239L32 14L31.9325 13.8239C30.9169 11.1756 28.8244 9.08311 26.1761 8.06751L26 8L26.1761 7.93249C28.8244 6.91689 30.9169 4.82441 31.9325 2.17605L32 2Z" fill="url(#paint5_linear)"/>
<path d="M9 44C9.88214 46.3003 11.6997 48.1179 14 49C11.6997 49.8821 9.88214 51.6997 9 54C8.11786 51.6997 6.30034 49.8821 4 49C6.30034 48.1179 8.11786 46.3003 9 44Z" fill="url(#paint6_linear)"/>
</g>
<defs>
<linearGradient id="paint0_linear" x1="39" y1="23" x2="39" y2="63" gradientUnits="userSpaceOnUse">
<stop stop-color="#2DE9FB"/>
<stop offset="1" stop-color="#0486F3"/>
</linearGradient>
<linearGradient id="paint1_linear" x1="14.9998" y1="0" x2="14.9998" y2="30" gradientUnits="userSpaceOnUse">
<stop stop-color="#2DE9FB"/>
<stop offset="1" stop-color="#0486F3"/>
</linearGradient>
<linearGradient id="paint2_linear" x1="25.0013" y1="23" x2="25.0013" y2="63" gradientUnits="userSpaceOnUse">
<stop stop-color="#2DE9FB"/>
<stop offset="1" stop-color="#0486F3"/>
</linearGradient>
<linearGradient id="paint3_linear" x1="14.9998" y1="11" x2="14.9998" y2="41" gradientUnits="userSpaceOnUse">
<stop stop-color="#2DE9FB"/>
<stop offset="1" stop-color="#0486F3"/>
</linearGradient>
<linearGradient id="paint4_linear" x1="55" y1="44" x2="55" y2="58" gradientUnits="userSpaceOnUse">
<stop stop-color="#FFB800"/>
<stop offset="1" stop-color="#FBDC1F"/>
</linearGradient>
<linearGradient id="paint5_linear" x1="32" y1="2" x2="32" y2="14" gradientUnits="userSpaceOnUse">
<stop stop-color="#FFB800"/>
<stop offset="1" stop-color="#FBDC1F"/>
</linearGradient>
<linearGradient id="paint6_linear" x1="9" y1="44" x2="9" y2="54" gradientUnits="userSpaceOnUse">
<stop stop-color="#FFB800"/>
<stop offset="1" stop-color="#FBDC1F"/>
</linearGradient>
<clipPath id="clip0">
<rect width="64" height="64" fill="white"/>
</clipPath>
</defs>
</svg>
