<svg width="24" height="24" viewBox="0 0 24 24" fill="none" xmlns="http://www.w3.org/2000/svg">
	<path
		d="M1.46564 0.402649C1.18626 0.682033 1 1.14767 1 1.70644V22.2878C1 22.8465 1.18626 23.3122 1.46564 23.5916L1.55877 23.6847L13.0135 12.1368V12.0437V11.9505L1.46564 0.402649Z"
		fill="url(#paint0_linear_835_348)" />
	<path
		d="M16.9248 15.9551L13.0134 12.1368V12.0437V11.9506L16.8317 8.13232L16.9248 8.22545L21.4881 10.833C22.7919 11.5781 22.7919 12.7887 21.4881 13.5338L16.9248 15.9551Z"
		fill="url(#paint1_linear_835_348)" />
	<path
		d="M16.9249 15.955L13.0135 12.0436L1.46558 23.5915C1.93122 24.0572 2.58311 24.0572 3.42127 23.6847L16.9249 15.955Z"
		fill="url(#paint2_linear_835_348)" />
	<path
		d="M16.9249 8.03919L3.32814 0.309554C2.58311 -0.156087 1.83809 -0.0629588 1.46558 0.402682L13.1066 12.0437L16.9249 8.03919Z"
		fill="url(#paint3_linear_835_348)" />
	<path opacity="0.2"
		d="M16.925 15.862L3.32825 23.4985C2.58322 23.9642 1.93133 23.871 1.46569 23.4985L1.37256 23.5916L1.46569 23.6848C1.93133 24.0573 2.58322 24.1504 3.32825 23.6848L16.925 15.862Z"
		fill="black" />
	<path opacity="0.12"
		d="M1.46564 23.4985C1.18626 23.2191 1 22.7535 1 22.1947V22.2878C1 22.8466 1.18626 23.3122 1.46564 23.5916V23.4985Z"
		fill="black" />
	<path opacity="0.12"
		d="M21.4882 13.2543L16.8318 15.8619L16.9249 15.955L21.4882 13.3474C22.1401 12.9749 22.4195 12.5093 22.4195 12.0436C22.4195 12.4162 22.1401 12.8818 21.4882 13.2543Z"
		fill="black" />
	<path opacity="0.25"
		d="M3.3282 0.495814L21.4882 10.833C22.047 11.2056 22.4195 11.5781 22.4195 12.0437C22.4195 11.5781 22.1401 11.1124 21.4882 10.7399L3.3282 0.309557C2.02441 -0.435468 1 0.216429 1 1.70648V1.79961C1 0.309557 2.02441 -0.249212 3.3282 0.495814Z"
		fill="white" />
	<defs>
		<linearGradient id="paint0_linear_835_348" x1="12.0144" y1="1.4915" x2="-3.61478" y2="17.1206"
			gradientUnits="userSpaceOnUse">
			<stop stop-color="#00A0FF" />
			<stop offset="0.00657445" stop-color="#00A1FF" />
			<stop offset="0.2601" stop-color="#00BEFF" />
			<stop offset="0.5122" stop-color="#00D2FF" />
			<stop offset="0.7604" stop-color="#00DFFF" />
			<stop offset="1" stop-color="#00E3FF" />
		</linearGradient>
		<linearGradient id="paint1_linear_835_348" x1="23.222" y1="12.0073" x2="0.68782" y2="12.0073"
			gradientUnits="userSpaceOnUse">
			<stop stop-color="#FFE000" />
			<stop offset="0.4087" stop-color="#FFBD00" />
			<stop offset="0.7754" stop-color="#FFA500" />
			<stop offset="1" stop-color="#FF9C00" />
		</linearGradient>
		<linearGradient id="paint2_linear_835_348" x1="14.8336" y1="14.1442" x2="-6.36082" y2="35.3386"
			gradientUnits="userSpaceOnUse">
			<stop stop-color="#FF3A44" />
			<stop offset="1" stop-color="#C31162" />
		</linearGradient>
		<linearGradient id="paint3_linear_835_348" x1="-1.49152" y1="-6.45556" x2="7.97272" y2="3.00859"
			gradientUnits="userSpaceOnUse">
			<stop stop-color="#32A071" />
			<stop offset="0.0685" stop-color="#2DA771" />
			<stop offset="0.4762" stop-color="#15CF74" />
			<stop offset="0.8009" stop-color="#06E775" />
			<stop offset="1" stop-color="#00F076" />
		</linearGradient>
	</defs>
</svg>