<svg width="160" height="32" viewBox="0 0 160 32" fill="none" xmlns="http://www.w3.org/2000/svg">
<path d="M64.085 26.4602H60.5544V16.5784C60.5544 15.5111 60.5986 14.3325 60.6872 13.0426H60.5986C60.4142 14.0561 60.2482 14.7855 60.1006 15.2308L56.3817 26.4602H53.4598L49.6746 15.346C49.5713 15.0466 49.4052 14.2788 49.1765 13.0426H49.0769C49.1728 14.6703 49.2208 16.0985 49.2208 17.327V26.4602H46V9.94442H51.2351L54.4781 19.7341C54.7363 20.5173 54.9245 21.3043 55.0425 22.0951H55.1089C55.3082 21.1814 55.5184 20.3867 55.7398 19.7111L58.9827 9.94442H64.085V26.4602Z" fill="black"/>
<path d="M76.78 26.4602H73.4707V24.7672H73.4264C72.6664 26.0878 71.5412 26.7481 70.0507 26.7481C68.9513 26.7481 68.0843 26.4256 67.4497 25.7807C66.8225 25.128 66.5089 24.2604 66.5089 23.1778C66.5089 20.8897 67.8113 19.569 70.4159 19.2158L73.4928 18.7897C73.4928 17.4998 72.8214 16.8548 71.4784 16.8548C70.1282 16.8548 68.8443 17.2732 67.6268 18.1102V15.3691C68.1138 15.108 68.7779 14.8777 69.619 14.678C70.4676 14.4784 71.2386 14.3786 71.9322 14.3786C75.1641 14.3786 76.78 16.0563 76.78 19.4116V26.4602ZM73.4928 21.669V20.8743L71.4342 21.1507C70.2979 21.3043 69.7297 21.8379 69.7297 22.7516C69.7297 23.1662 69.8662 23.5079 70.1392 23.7767C70.4196 24.0377 70.7959 24.1683 71.2682 24.1683C71.9249 24.1683 72.4598 23.9341 72.873 23.4657C73.2862 22.9897 73.4928 22.3908 73.4928 21.669Z" fill="black"/>
<path d="M90.6592 25.1127C90.6592 27.301 90.0505 28.994 88.833 30.1918C87.6155 31.3973 85.852 32 83.5425 32C82.0151 32 80.805 31.7735 79.9122 31.3205V28.2569C81.0781 28.9633 82.2549 29.3165 83.4429 29.3165C84.6235 29.3165 85.5384 28.9902 86.1878 28.3375C86.8371 27.6925 87.1617 26.8134 87.1617 25.7001V24.7672H87.1175C86.3206 26.0878 85.1437 26.7481 83.5868 26.7481C82.1406 26.7481 80.9932 26.2183 80.1447 25.1587C79.2961 24.0991 78.8718 22.6787 78.8718 20.8973C78.8718 18.901 79.3441 17.3155 80.2885 16.1407C81.233 14.9659 82.4763 14.3786 84.0184 14.3786C85.3983 14.3786 86.4313 14.9314 87.1175 16.0371H87.1617V14.6665H90.6592V25.1127ZM87.206 20.7937V19.8608C87.206 19.116 86.992 18.4826 86.5641 17.9604C86.1435 17.4306 85.5938 17.1657 84.9149 17.1657C84.1402 17.1657 83.5315 17.4806 83.0887 18.1102C82.646 18.7398 82.4247 19.6266 82.4247 20.7707C82.4247 21.7535 82.635 22.5328 83.0555 23.1087C83.4761 23.6768 84.0517 23.9609 84.7821 23.9609C85.5052 23.9609 86.0882 23.673 86.5309 23.0971C86.981 22.5136 87.206 21.7458 87.206 20.7937Z" fill="black"/>
<path d="M95.352 12.8007C94.7617 12.8007 94.2784 12.6203 93.9021 12.2594C93.5258 11.8908 93.3377 11.4417 93.3377 10.9119C93.3377 10.3667 93.5258 9.92138 93.9021 9.57586C94.2784 9.23035 94.7617 9.05759 95.352 9.05759C95.9497 9.05759 96.433 9.23035 96.8019 9.57586C97.1782 9.92138 97.3664 10.3667 97.3664 10.9119C97.3664 11.4647 97.1782 11.9177 96.8019 12.2709C96.433 12.6241 95.9497 12.8007 95.352 12.8007ZM97.0786 26.4602H93.5812V14.6665H97.0786V26.4602Z" fill="black"/>
<path d="M108.611 26.0341C107.822 26.5101 106.682 26.7481 105.191 26.7481C103.45 26.7481 102.041 26.1991 100.963 25.1012C99.8862 24.0032 99.3476 22.5865 99.3476 20.8513C99.3476 18.8473 99.9231 17.2694 101.074 16.1177C102.233 14.9583 103.778 14.3786 105.712 14.3786C107.047 14.3786 108.014 14.5628 108.611 14.9314V18.018C107.881 17.4498 107.066 17.1657 106.165 17.1657C105.162 17.1657 104.365 17.4729 103.775 18.0871C103.192 18.6937 102.9 19.5345 102.9 20.6094C102.9 21.6536 103.181 22.4752 103.742 23.0741C104.302 23.6653 105.073 23.9609 106.055 23.9609C106.925 23.9609 107.778 23.6768 108.611 23.1087V26.0341Z" fill="black"/>
<path d="M114.832 20.7707V26.4602H111.257V9.94442H116.857C120.856 9.94442 122.856 11.6989 122.856 15.2078C122.856 16.8663 122.28 18.21 121.129 19.2389C119.986 20.2601 118.455 20.7707 116.536 20.7707H114.832ZM114.832 12.8007V17.9489H116.237C118.141 17.9489 119.093 17.0813 119.093 15.346C119.093 13.6491 118.141 12.8007 116.237 12.8007H114.832Z" fill="black"/>
<path d="M129.552 26.7481C127.663 26.7481 126.176 26.1991 125.092 25.1012C124.014 23.9955 123.476 22.4982 123.476 20.6094C123.476 18.6592 124.036 17.135 125.158 16.0371C126.28 14.9314 127.796 14.3786 129.707 14.3786C131.589 14.3786 133.064 14.9314 134.134 16.0371C135.204 17.135 135.739 18.5901 135.739 20.4021C135.739 22.36 135.186 23.9072 134.079 25.0436C132.979 26.1799 131.47 26.7481 129.552 26.7481ZM129.641 17.1657C128.814 17.1657 128.172 17.4614 127.715 18.0526C127.257 18.6438 127.029 19.4807 127.029 20.5633C127.029 22.8284 127.907 23.9609 129.663 23.9609C131.338 23.9609 132.175 22.7977 132.175 20.4712C132.175 18.2676 131.33 17.1657 129.641 17.1657Z" fill="black"/>
<path d="M149.098 26.4602H145.601V24.8363H145.556C144.759 26.1108 143.59 26.7481 142.048 26.7481C140.631 26.7481 139.491 26.2298 138.628 25.1933C137.764 24.1491 137.333 22.694 137.333 20.8282C137.333 18.878 137.809 17.3155 138.761 16.1407C139.712 14.9659 140.959 14.3786 142.502 14.3786C143.963 14.3786 144.981 14.9237 145.556 16.014H145.601V9H149.098V26.4602ZM145.667 20.7246V19.8378C145.667 19.0699 145.453 18.4326 145.025 17.9259C144.597 17.4191 144.04 17.1657 143.354 17.1657C142.579 17.1657 141.974 17.4844 141.539 18.1217C141.103 18.7513 140.886 19.6189 140.886 20.7246C140.886 21.7611 141.096 22.5597 141.517 23.1202C141.937 23.6807 142.52 23.9609 143.265 23.9609C143.974 23.9609 144.549 23.6653 144.992 23.0741C145.442 22.4829 145.667 21.6997 145.667 20.7246Z" fill="black"/>
<path d="M151.301 26.1492V23.2008C151.876 23.5617 152.448 23.8304 153.016 24.007C153.592 24.1836 154.134 24.2719 154.643 24.2719C155.263 24.2719 155.75 24.1836 156.104 24.007C156.466 23.8304 156.646 23.5617 156.646 23.2008C156.646 22.9705 156.565 22.7785 156.403 22.6249C156.241 22.4714 156.03 22.337 155.772 22.2218C155.521 22.1067 155.244 22.003 154.942 21.9109C154.639 21.8187 154.348 21.7151 154.068 21.5999C153.617 21.4233 153.219 21.2352 152.872 21.0356C152.533 20.8282 152.245 20.5902 152.009 20.3215C151.78 20.0527 151.603 19.7418 151.478 19.3886C151.36 19.0354 151.301 18.6169 151.301 18.1332C151.301 17.4729 151.437 16.9047 151.71 16.4286C151.99 15.9526 152.359 15.5648 152.817 15.2654C153.282 14.9583 153.809 14.7356 154.4 14.5974C154.997 14.4515 155.617 14.3786 156.259 14.3786C156.761 14.3786 157.27 14.4208 157.786 14.5053C158.303 14.582 158.812 14.6972 159.314 14.8508V17.661C158.871 17.3923 158.395 17.1926 157.886 17.0621C157.384 16.9239 156.89 16.8548 156.403 16.8548C156.174 16.8548 155.956 16.8778 155.75 16.9239C155.551 16.9623 155.374 17.0237 155.219 17.1082C155.064 17.1849 154.942 17.2886 154.853 17.4191C154.765 17.542 154.721 17.684 154.721 17.8453C154.721 18.0603 154.787 18.2445 154.92 18.3981C155.053 18.5517 155.226 18.686 155.44 18.8012C155.654 18.9087 155.89 19.0085 156.148 19.1007C156.414 19.1851 156.676 19.2734 156.934 19.3655C157.399 19.5345 157.82 19.7187 158.196 19.9184C158.572 20.118 158.893 20.3522 159.159 20.6209C159.432 20.8897 159.638 21.2045 159.779 21.5653C159.926 21.9262 160 22.3562 160 22.8553C160 23.554 159.852 24.1529 159.557 24.652C159.27 25.1434 158.882 25.5465 158.395 25.8613C157.916 26.1684 157.358 26.3911 156.724 26.5293C156.097 26.6752 155.444 26.7481 154.765 26.7481C153.518 26.7481 152.363 26.5485 151.301 26.1492Z" fill="black"/>
<rect x="9.95312" y="11.197" width="4.9763" height="19.9055" rx="2.48815" fill="url(#paint0_linear)"/>
<path fill-rule="evenodd" clip-rule="evenodd" d="M14.9294 28.4337V28.9882C14.9294 30.156 13.9828 31.1026 12.815 31.1026H12.0675C10.8998 31.1026 9.95312 30.156 9.95312 28.9882V28.4337L14.9294 28.4337Z" fill="#0461DF"/>
<ellipse cx="7.46445" cy="12.4411" rx="7.46445" ry="7.46456" fill="url(#paint1_linear)"/>
<ellipse cx="1.67389" cy="12.4411" rx="1.67389" ry="3.6826" fill="#0461DF"/>
<ellipse cx="7.70025" cy="10.7931" rx="1.00433" ry="1.00435" fill="#0461DF"/>
<rect width="4.9763" height="19.9055" rx="2.48815" transform="matrix(-1 0 0 1 22.3936 11.197)" fill="url(#paint2_linear)"/>
<path fill-rule="evenodd" clip-rule="evenodd" d="M17.4173 28.4337V28.9882C17.4173 30.156 18.3639 31.1026 19.5316 31.1026H20.2792C21.4469 31.1026 22.3936 30.156 22.3936 28.9882V28.4337L17.4173 28.4337Z" fill="#0461DF"/>
<ellipse rx="7.46445" ry="7.46456" transform="matrix(-1 0 0 1 24.8822 12.4411)" fill="url(#paint3_linear)"/>
<ellipse rx="1.67389" ry="3.6826" transform="matrix(-1 0 0 1 30.6728 12.4411)" fill="#0461DF"/>
<ellipse rx="1.00433" ry="1.00435" transform="matrix(-1 0 0 1 24.6464 10.7931)" fill="#0461DF"/>
<path d="M26.7199 22.3936L26.7433 22.4565C27.3663 24.1336 28.672 25.4673 30.3355 26.1258C28.672 26.7843 27.3663 28.1181 26.7433 29.7952L26.7199 29.8581L26.6965 29.7952C26.0735 28.1181 24.7677 26.7843 23.1042 26.1258C24.7677 25.4673 26.0735 24.1336 26.6965 22.4565L26.7199 22.3936Z" fill="url(#paint4_linear)"/>
<path d="M14.6683 0L14.6878 0.0524441C15.207 1.45003 16.2951 2.56149 17.6814 3.11023C16.2951 3.65898 15.207 4.77044 14.6878 6.16802L14.6683 6.22047L14.6488 6.16802C14.1296 4.77044 13.0415 3.65898 11.6553 3.11023C13.0415 2.56149 14.1296 1.45003 14.6488 0.0524443L14.6683 0Z" fill="url(#paint5_linear)"/>
<path d="M3.21829 21.1494L3.23388 21.1914C3.64924 22.3094 4.51972 23.1986 5.62872 23.6376C4.51972 24.0766 3.64924 24.9658 3.23388 26.0838L3.21829 26.1258L3.2027 26.0838C2.78735 24.9658 1.91686 24.0766 0.807861 23.6376C1.91686 23.1986 2.78735 22.3094 3.2027 21.1914L3.21829 21.1494Z" fill="url(#paint6_linear)"/>
<defs>
<linearGradient id="paint0_linear" x1="12.4413" y1="11.197" x2="12.4413" y2="31.1025" gradientUnits="userSpaceOnUse">
<stop stop-color="#2DE9FB"/>
<stop offset="1" stop-color="#0486F3"/>
</linearGradient>
<linearGradient id="paint1_linear" x1="7.46445" y1="4.97656" x2="7.46445" y2="19.9057" gradientUnits="userSpaceOnUse">
<stop stop-color="#2DE9FB"/>
<stop offset="1" stop-color="#0486F3"/>
</linearGradient>
<linearGradient id="paint2_linear" x1="2.48815" y1="0" x2="2.48815" y2="19.9055" gradientUnits="userSpaceOnUse">
<stop stop-color="#2DE9FB"/>
<stop offset="1" stop-color="#0486F3"/>
</linearGradient>
<linearGradient id="paint3_linear" x1="7.46445" y1="0" x2="7.46445" y2="14.9291" gradientUnits="userSpaceOnUse">
<stop stop-color="#2DE9FB"/>
<stop offset="1" stop-color="#0486F3"/>
</linearGradient>
<linearGradient id="paint4_linear" x1="26.7199" y1="22.3936" x2="26.7199" y2="29.8581" gradientUnits="userSpaceOnUse">
<stop stop-color="#FFB800"/>
<stop offset="1" stop-color="#FBDC1F"/>
</linearGradient>
<linearGradient id="paint5_linear" x1="14.6683" y1="0" x2="14.6683" y2="6.22047" gradientUnits="userSpaceOnUse">
<stop stop-color="#FFB800"/>
<stop offset="1" stop-color="#FBDC1F"/>
</linearGradient>
<linearGradient id="paint6_linear" x1="3.21829" y1="21.1494" x2="3.21829" y2="26.1258" gradientUnits="userSpaceOnUse">
<stop stop-color="#FFB800"/>
<stop offset="1" stop-color="#FBDC1F"/>
</linearGradient>
</defs>
</svg>
