<svg width="33" height="32" viewBox="0 0 33 32" fill="none" xmlns="http://www.w3.org/2000/svg">
<rect x="9.95312" y="11.1968" width="4.9763" height="19.9055" rx="2.48815" fill="url(#paint0_linear)"/>
<path fill-rule="evenodd" clip-rule="evenodd" d="M14.9294 28.4336V28.9881C14.9294 30.1559 13.9828 31.1025 12.815 31.1025H12.0675C10.8998 31.1025 9.95312 30.1559 9.95312 28.9881V28.4336L14.9294 28.4336Z" fill="#0461DF"/>
<ellipse cx="7.46445" cy="12.4411" rx="7.46445" ry="7.46456" fill="url(#paint1_linear)"/>
<ellipse cx="1.67389" cy="12.4409" rx="1.67389" ry="3.6826" fill="#0461DF"/>
<ellipse cx="7.70062" cy="10.7929" rx="1.00433" ry="1.00435" fill="#0461DF"/>
<rect width="4.9763" height="19.9055" rx="2.48815" transform="matrix(-1 0 0 1 22.3936 11.1968)" fill="url(#paint2_linear)"/>
<path fill-rule="evenodd" clip-rule="evenodd" d="M17.4173 28.4336V28.9881C17.4173 30.1559 18.3639 31.1025 19.5316 31.1025H20.2792C21.4469 31.1025 22.3936 30.1559 22.3936 28.9881V28.4336L17.4173 28.4336Z" fill="#0461DF"/>
<ellipse rx="7.46445" ry="7.46456" transform="matrix(-1 0 0 1 24.8822 12.4411)" fill="url(#paint3_linear)"/>
<ellipse rx="1.67389" ry="3.6826" transform="matrix(-1 0 0 1 30.6728 12.4409)" fill="#0461DF"/>
<ellipse rx="1.00433" ry="1.00435" transform="matrix(-1 0 0 1 24.6461 10.7929)" fill="#0461DF"/>
<path d="M28.6141 22.394C29.2726 24.1111 30.6293 25.4678 32.3464 26.1263C30.6293 26.7848 29.2726 28.1415 28.6141 29.8586C27.9556 28.1415 26.5989 26.7848 24.8818 26.1263C26.5989 25.4678 27.9556 24.1111 28.6141 22.394Z" fill="url(#paint4_linear)"/>
<path d="M16.1737 0C16.7224 1.43092 17.853 2.5615 19.2839 3.11023C17.853 3.65896 16.7224 4.78954 16.1737 6.22047C15.625 4.78954 14.4944 3.65896 13.0635 3.11023C14.4944 2.5615 15.625 1.43092 16.1737 0Z" fill="url(#paint5_linear)"/>
<path d="M4.3544 21.1494C4.79338 22.2942 5.69785 23.1986 6.84258 23.6376C5.69785 24.0766 4.79338 24.981 4.3544 26.1258C3.91541 24.981 3.01095 24.0766 1.86621 23.6376C3.01095 23.1986 3.91541 22.2942 4.3544 21.1494Z" fill="url(#paint6_linear)"/>
<defs>
<linearGradient id="paint0_linear" x1="12.4413" y1="11.1968" x2="12.4413" y2="31.1023" gradientUnits="userSpaceOnUse">
<stop stop-color="#2DE9FB"/>
<stop offset="1" stop-color="#0486F3"/>
</linearGradient>
<linearGradient id="paint1_linear" x1="7.46445" y1="4.97656" x2="7.46445" y2="19.9057" gradientUnits="userSpaceOnUse">
<stop stop-color="#2DE9FB"/>
<stop offset="1" stop-color="#0486F3"/>
</linearGradient>
<linearGradient id="paint2_linear" x1="2.48815" y1="0" x2="2.48815" y2="19.9055" gradientUnits="userSpaceOnUse">
<stop stop-color="#2DE9FB"/>
<stop offset="1" stop-color="#0486F3"/>
</linearGradient>
<linearGradient id="paint3_linear" x1="7.46445" y1="0" x2="7.46445" y2="14.9291" gradientUnits="userSpaceOnUse">
<stop stop-color="#2DE9FB"/>
<stop offset="1" stop-color="#0486F3"/>
</linearGradient>
<linearGradient id="paint4_linear" x1="28.6141" y1="22.394" x2="28.6141" y2="29.8586" gradientUnits="userSpaceOnUse">
<stop stop-color="#FFB800"/>
<stop offset="1" stop-color="#FBDC1F"/>
</linearGradient>
<linearGradient id="paint5_linear" x1="16.1737" y1="0" x2="16.1737" y2="6.22047" gradientUnits="userSpaceOnUse">
<stop stop-color="#FFB800"/>
<stop offset="1" stop-color="#FBDC1F"/>
</linearGradient>
<linearGradient id="paint6_linear" x1="4.3544" y1="21.1494" x2="4.3544" y2="26.1258" gradientUnits="userSpaceOnUse">
<stop stop-color="#FFB800"/>
<stop offset="1" stop-color="#FBDC1F"/>
</linearGradient>
</defs>
</svg>
